<?xml version="1.0" encoding="utf-8"?>
<!-- Svg Vector Icons : http://www.onlinewebfonts.com/icon -->
<!DOCTYPE svg PUBLIC "-//W3C//DTD SVG 1.1//EN" "http://www.w3.org/Graphics/SVG/1.1/DTD/svg11.dtd">
<svg version="1.1" xmlns="http://www.w3.org/2000/svg" xmlns:xlink="http://www.w3.org/1999/xlink" x="0px" y="0px" viewBox="0 0 1000 1000" enable-background="new 0 0 1000 1000" xml:space="preserve">
<metadata> Svg Vector Icons : http://www.onlinewebfonts.com/icon </metadata>
<g><g transform="translate(0.000000,511.000000) scale(0.100000,-0.100000)"><path d="M5787.2,3248.9c-470.5-72.2-812-203.5-1160-448.7c-317.4-223.2-628.1-597.5-796.7-956.4c-50.3-102.9-74.4-133.5-98.5-122.6c-234.2,98.5-372.1,126.9-636.9,126.9c-323.9,2.2-472.7-30.6-739.8-164.1c-313-157.6-590.9-455.2-728.8-783.5l-61.3-142.3l-142.3-48.2c-168.5-56.9-374.3-159.8-514.3-256.1C749,346.7,510.5,92.9,394.5-93.1c-639.1-1026.5-197-2363.7,930.2-2814.6c348-140.1,223.2-135.7,3841-129.1c2989.6,6.6,3291.7,10.9,3401.1,43.8c238.6,72.2,372.1,131.3,529.6,234.2c685,448.7,973.9,1291.3,702.5,2048.6c-190.4,527.4-634.7,941.1-1177.5,1096.5l-142.3,41.6l13.1,240.8c54.7,960.8-453,1862.5-1300,2304.6c-253.9,133.5-492.4,214.5-759.5,256.1C6253.4,3259.8,5922.9,3268.5,5787.2,3248.9z M6555.4,2848.3c391.8-100.7,698.2-278,982.7-569c282.3-284.5,464-608.4,562.5-1000.2c70-286.7,48.2-777-50.3-1127.1c-8.8-30.6,17.5-37.2,159.8-50.3c560.3-50.3,998-345.8,1214.7-820.7c308.6-671.9,19.7-1488.3-641.3-1814.4c-339.2-168.5-111.6-159.8-3779.7-153.2l-3276.4,6.6l-175.1,59.1c-253.9,87.5-435.5,201.3-634.7,400.5c-286.7,286.7-435.5,606.3-464,993.6C398.8-436.8,937.2,263.6,1725.1,425.5l129.1,26.3l46,166.3c144.5,499,569,847,1083.4,886.4c288.9,19.7,551.5-54.7,818.5-234.2l157.6-107.2l67.8,212.3C4288,2194,4903,2743.3,5721.6,2887.7C5909.8,2920.6,6362.8,2900.9,6555.4,2848.3z"/></g></g>
</svg>