<?xml version="1.0" encoding="UTF-8" standalone="no"?>
<!--
*************Map created by Simplemaps.com********************		
*************Attribution is highly appreciated!***************
*************http://simplemaps.com****************************

The MIT License (MIT)

Copyright (c) 2020 Pareto Softare, LLC DBA Simplemaps.com

Permission is hereby granted, free of charge, to any person obtaining a copy
of this software and associated documentation files (the "Software"), to deal
in the Software without restriction, including without limitation the rights
to use, copy, modify, merge, publish, distribute, sublicense, and/or sell
copies of the Software, and to permit persons to whom the Software is
furnished to do so, subject to the following conditions:

The above copyright notice and this permission notice shall be included in
all copies or substantial portions of the Software.

THE SOFTWARE IS PROVIDED "AS IS", WITHOUT WARRANTY OF ANY KIND, EXPRESS OR
IMPLIED, INCLUDING BUT NOT LIMITED TO THE WARRANTIES OF MERCHANTABILITY,
FITNESS FOR A PARTICULAR PURPOSE AND NONINFRINGEMENT. IN NO EVENT SHALL THE
AUTHORS OR COPYRIGHT HOLDERS BE LIABLE FOR ANY CLAIM, DAMAGES OR OTHER
LIABILITY, WHETHER IN AN ACTION OF CONTRACT, TORT OR OTHERWISE, ARISING FROM,
OUT OF OR IN CONNECTION WITH THE SOFTWARE OR THE USE OR OTHER DEALINGS IN
THE SOFTWARE.

-->

<svg
   baseprofile="tiny"
   fill="#ececec"
   height="684"
   stroke="black"
   stroke-linecap="round"
   stroke-linejoin="round"
   stroke-width=".2"
   version="1.2"
   viewbox="0 0 1000 684"
   width="1000"
   id="svg776"
   sodipodi:docname="asia.svg"
   inkscape:version="1.1.1 (3bf5ae0d25, 2021-09-20)"
   xmlns:inkscape="http://www.inkscape.org/namespaces/inkscape"
   xmlns:sodipodi="http://sodipodi.sourceforge.net/DTD/sodipodi-0.dtd"
   xmlns="http://www.w3.org/2000/svg"
   xmlns:svg="http://www.w3.org/2000/svg">
  <defs
     id="defs780" />
  <sodipodi:namedview
     id="namedview778"
     pagecolor="#ffffff"
     bordercolor="#666666"
     borderopacity="1.0"
     inkscape:pageshadow="2"
     inkscape:pageopacity="0.0"
     inkscape:pagecheckerboard="0"
     showgrid="false"
     inkscape:zoom="0.89449008"
     inkscape:cx="467.30535"
     inkscape:cy="309.11466"
     inkscape:window-width="1920"
     inkscape:window-height="1001"
     inkscape:window-x="381"
     inkscape:window-y="1341"
     inkscape:window-maximized="1"
     inkscape:current-layer="svg776" />
  <path
     d="m 505.62346,317.61655 1.6274,1.95287 -3.14631,0.86795 -2.60383,1.19342 -6.40108,0.86794 -5.75013,1.41041 -2.60384,3.03781 2.06137,2.92931 1.5189,3.47177 -2.16985,2.92932 0.86794,2.71232 -0.97644,2.49534 -5.64164,-0.21699 3.36329,4.55672 -3.36329,1.84437 -1.5189,4.12274 1.19342,4.23123 -1.95287,1.95287 -2.27835,-0.65096 -4.33972,0.97644 -0.21699,1.84438 h -4.44822 l -2.49533,4.01424 0.86794,5.85862 -7.16054,2.92931 -4.23122,-0.65096 -0.97644,1.51891 -3.68876,-0.86795 -5.75014,1.08493 -10.41532,-3.58026 4.23122,-6.2926 -1.19343,-4.44821 -4.66519,-1.19343 -1.30191,-4.4482 -2.92932,-5.53316 1.73589,-3.79725 -2.71233,-1.08493 0.54247,-5.09917 0.65096,-8.67944 6.40108,2.71233 4.23124,-0.97644 0.43396,-3.1463 4.33973,-0.97644 2.82082,-2.16985 -0.21699,-5.53315 4.5567,-1.41041 0.32548,-2.38685 3.1463,1.84438 1.73589,0.21699 h 3.25479 l 4.6652,1.5189 1.95288,0.75946 3.68876,-2.16987 2.27835,1.30193 0.97644,-3.14631 3.47177,0.1085 0.65096,-0.97644 -0.21698,-2.82082 1.84437,-2.38685 3.58027,1.51891 -0.10848,2.16985 1.84437,0.32548 0.97644,5.85863 2.92931,2.27836 1.62739,-1.51891 2.38685,-0.65096 2.71233,-3.14629 4.12273,0.54246 z"
     id="AF"
     name="Afghanistan"
     />
  <path
     d="m 411.45152,399.0948 1.41041,5.53314 h -3.0378 v 4.55672 l 1.19342,0.97643 -2.60384,1.4104 0.217,2.82083 -1.41041,2.82081 v 2.82083 l -1.08494,1.51889 -18.33531,-3.47177 -2.92931,-7.16054 -0.32548,-1.5189 0.97644,-0.43398 0.43396,1.95288 4.55671,-1.08493 4.99067,0.21699 3.68877,0.21698 3.58027,-4.77369 4.01424,-4.44822 3.25479,-4.33972 z"
     id="AE"
     name="United Arab Emirates"
     />
  <path
     d="m 340.49709,308.28615 -1.95287,0.21699 -3.03781,-4.01424 -0.21698,-1.08494 h -2.49535 l -2.06136,-1.84437 -1.08493,0.10848 -2.60383,-1.95287 -4.55671,-1.73588 -0.10849,-3.36329 -1.41041,-2.38685 7.59451,-1.08493 1.51891,1.73589 2.38683,1.19342 -0.75944,1.73589 3.47177,2.38685 -1.19342,2.27835 2.82082,1.84438 2.71232,1.08493 z"
     id="AM"
     name="Armenia"
     />
  <path
     className="AZ"
     d="m 338.54422,308.50314 -4.12273,-0.97644 -3.47178,-3.1463 -1.30192,-2.71233 1.08493,-0.10848 2.06136,1.84437 h 2.49535 l 0.21698,1.08494 z"
     
     />
  <path
     className="AZ"
     d="m 345.37927,290.05933 2.71233,-2.82083 3.79726,3.58027 3.90575,4.99068 2.71233,0.32548 2.06136,1.84439 -4.55671,0.54246 0.1085,5.42465 -0.43398,2.38684 -1.84437,1.6274 0.86794,3.36328 -1.41042,0.43398 -4.23122,-3.68877 1.30191,-3.36328 -2.06137,-2.06136 -2.06136,0.54246 -5.75013,5.09917 -0.97644,-4.88219 -2.71232,-1.08493 -2.82082,-1.84438 1.19342,-2.27835 -3.47177,-2.38685 0.75944,-1.73589 -2.38683,-1.19342 -1.51891,-1.73589 1.19343,-1.19342 4.5567,2.06137 3.14629,0.32548 0.65096,-0.75945 -3.58027,-3.79725 1.30192,-0.86796 1.62739,0.217 4.6652,4.12273 2.60384,0.54246 z"
     
     />
  <path
     d="m 633.21124,424.69916 0.65096,4.99068 -2.27835,-1.08494 1.19342,5.64164 -2.27836,-3.58027 -0.86794,-3.58027 -1.62739,-3.36328 -3.03781,-4.01424 -5.64164,-0.32548 0.97644,2.92931 -1.30191,3.79725 -2.82082,-1.4104 -0.65096,1.30191 -1.84438,-0.75945 -2.38685,-0.65096 -1.73588,-5.75013 -2.82083,-5.20767 0.32548,-4.23122 -4.01424,-1.84438 0.97644,-2.49534 3.25479,-2.60383 -4.99067,-3.68877 1.30191,-4.77369 5.31616,3.0378 2.92931,0.32548 1.30192,4.88219 5.85862,0.97644 5.53314,-0.1085 3.68876,1.19342 -1.73589,5.85863 -2.60383,0.43397 -1.30192,3.90576 3.90575,3.68875 0.32548,-4.55671 h 1.62739 z"
     id="BD"
     name="Bangladesh"
     />
  <path
     d="m 776.96448,546.7538 2.38685,-2.60383 4.99068,-3.90576 -0.1085,3.47178 -0.10848,4.44821 -2.92931,-0.21698 -1.19343,2.38684 z"
     id="BN"
     name="Brunei Darussalam"
     />
  <path
     d="m 620.40907,384.77373 2.82081,2.27835 0.54247,4.23123 -4.88219,0.21698 -5.09917,-0.43397 -3.47178,1.08493 -5.96712,-2.71233 -0.43396,-1.30192 2.82081,-5.20766 2.82083,-1.73589 4.6652,1.51891 3.14629,0.21698 z"
     id="BT"
     name="Bhutan"
     />
  <path
     className="CN"
     d="m 743.44014,448.13365 -4.6652,3.36327 -5.31616,-2.16985 -1.08492,-5.96712 2.38684,-3.14629 6.29259,-1.95287 3.58027,0.10848 1.73589,2.71233 -2.16985,3.03781 z"
     
     />
  <path
     className="CN"
     d="m 768.82751,235.05336 9.76436,4.8822 6.50959,6.29258 h 8.24547 l 2.82082,-2.60383 7.48602,-2.06136 1.4104,6.1841 -0.32548,2.49533 3.03781,7.37753 0.65096,6.72657 -7.48602,-1.19343 -3.1463,2.38685 5.09918,5.85862 4.23122,8.13699 -2.71233,0.10848 2.06137,3.58027 -5.96711,-4.12273 v 3.90575 l -6.94356,2.92931 3.03781,3.68876 -4.99068,-0.32548 -3.90575,-2.16985 -1.19343,4.99067 -4.23122,3.68876 -2.27835,4.44822 -6.83506,1.95287 -2.60383,3.25479 -5.20766,1.95288 1.4104,-3.25479 -2.49534,-2.71233 2.16986,-4.6652 -4.88218,-3.58027 -3.68877,2.38685 -3.90575,4.88218 -1.41041,4.44822 -5.42464,0.32548 -1.41041,3.25479 5.20766,4.6652 5.20767,1.19342 1.5189,3.03781 5.53314,2.06137 4.12274,-4.99068 6.40108,2.71231 3.79726,0.217 2.49534,3.58026 -7.26904,1.95288 -1.08492,3.79726 -4.12274,3.47177 -0.97643,4.88218 7.703,3.79726 4.99067,6.83506 5.96712,6.40109 5.96712,5.31615 1.73589,5.20767 -3.03781,1.95288 2.60383,3.68876 4.23124,2.16986 0.86794,5.64163 0.10849,5.53315 -3.0378,0.65095 -2.27836,7.48602 -2.49534,9.22191 -3.68876,8.24547 -6.94356,6.40108 -7.16053,5.96712 -6.61808,0.75946 -3.14629,3.0378 -2.49535,-2.16986 -2.71231,3.36328 -7.81151,3.58027 -6.29259,0.97644 -0.75945,7.37752 -3.36328,0.43397 -2.38685,-5.09917 0.97644,-2.60383 -8.46245,-2.27835 -2.60384,1.19342 -6.40109,-1.84438 -3.36328,-2.82082 0.32548,-4.01425 -5.75013,-1.30191 -3.36328,-2.60383 -4.44822,3.68876 -5.75013,0.86794 -4.77369,-0.10848 -2.92931,1.73589 -2.92931,0.97643 2.16985,8.02848 -3.25479,-0.21698 -0.86794,-1.6274 -0.54246,-2.92931 -4.12274,2.06136 -2.82081,-1.30191 -4.8822,-2.60383 0.86796,-5.75013 -4.01425,-1.41041 -2.60383,-6.40109 -6.07561,1.19343 -0.75946,-8.24547 4.55672,-5.85863 -0.97644,-5.75013 -1.41041,-5.31615 -2.92931,-1.6274 -2.92931,-4.12274 -3.36329,0.54247 -6.61807,-1.08493 1.30192,-2.92931 -3.90575,-4.33972 -3.47178,2.92931 -5.31616,-1.6274 -5.85862,4.33973 -4.23123,5.20766 -4.5567,0.86795 -3.03781,-1.84439 -3.14629,-0.21698 -4.6652,-1.51891 -2.82083,1.73589 -2.82081,5.20766 -1.62739,-5.53314 -3.36329,1.51891 -7.05205,-0.75945 -7.05204,-1.51891 -5.42465,-3.14629 -4.88219,-1.30192 -2.71233,-3.36329 -3.58026,-0.97643 -6.94356,-4.55671 -5.20766,-2.16985 -2.06137,1.62739 -9.3304,-4.88219 -6.72656,-4.33971 -3.47178,-7.70301 4.44822,0.97644 -0.65096,-3.58027 -3.25479,-3.58027 -0.86795,-5.64164 -8.35396,-8.24547 -10.30684,-2.71232 -3.1463,-5.42466 -5.09916,-3.25479 -1.6274,-1.95287 -1.95287,-3.90575 -0.54247,-2.71233 -4.01425,-1.62739 -1.62739,0.75945 -3.36328,-6.50957 1.19342,-1.51891 -1.30191,-1.6274 4.4482,-3.25479 3.47179,-1.41041 6.29259,0.97644 0.65096,-4.44821 6.94355,-0.75945 1.08494,-2.82082 7.48601,-3.68876 0.21698,-1.51891 -1.84437,-4.01423 3.14629,-1.73589 -9.54739,-11.93424 9.87287,-2.71233 2.16986,-1.51889 -1.08493,-12.25972 11.71724,2.27836 1.73589,-3.1463 -2.71233,-6.72657 4.12274,-0.65095 2.06137,-4.55671 1.84438,-0.54247 3.58027,4.7737 6.1841,3.58026 8.89642,2.49534 6.2926,5.53315 1.51891,7.91999 3.25479,3.03781 7.05205,1.19342 7.81149,0.86794 8.67944,4.33972 3.68876,0.75945 5.42465,6.2926 5.09918,4.12273 6.0756,-0.21698 12.25972,1.62739 6.94355,-0.97644 6.07561,0.97644 10.19834,4.23123 h 6.72656 l 3.58027,2.06137 4.7737,-3.68877 7.81149,-2.38685 8.24547,-0.21698 5.31616,-2.38685 2.16987,-3.68876 2.60383,-2.38684 -2.06137,-2.27835 -3.1463,-2.60384 0.54247,-4.44821 3.47177,0.65095 6.40109,1.41042 3.47177,-3.68877 6.94356,-2.60383 1.41041,-4.5567 2.71233,-1.95289 7.37751,-0.86794 4.7737,0.75946 -0.86794,-2.38685 -7.8115,-4.7737 -5.64164,-2.16986 -2.71232,2.49534 -5.96711,-1.08492 -2.49535,0.86794 -3.03781,-2.71233 -0.32548,-6.83506 -0.65095,-5.09916 8.02848,2.60383 4.7737,-4.23124 -2.06137,-3.03779 -0.21698,-7.05205 1.4104,-2.16986 -2.71233,-3.68876 -4.01423,-1.51891 1.84438,-3.36328 5.53314,-1.19343 6.72657,-0.21698 9.3304,2.06137 6.50958,2.38684 8.35396,6.72657 4.12273,2.92931 4.88219,4.12274 6.72657,6.50958 z"
     
     />
  <path
     d="m 324.11465,281.0544 5.53314,1.41042 2.27835,2.82081 3.90575,1.62739 -1.30192,0.86796 3.58027,3.79725 -0.65096,0.75945 -3.14629,-0.32548 -4.5567,-2.06137 -1.19343,1.19342 -7.59451,1.08493 -6.07561,-3.47177 -5.96711,0.32548 0.32548,-2.92932 -2.27836,-4.66519 -3.68876,-2.60383 -3.25479,-0.75946 -2.38685,-2.06137 0.43398,-0.86794 4.99068,1.19342 8.35395,1.08494 8.24547,3.36328 1.30192,1.30192 z"
     id="GE"
     name="Georgia"
     />
  <path
     className="ID"
     d="m 814.28608,649.60517 -2.60383,0.1085 -7.703,-4.88219 5.85862,-1.41041 3.03781,2.16986 1.95287,2.06137 z"
     
     />
  <path
     className="ID"
     d="m 841.19235,640.16628 0.54246,1.4104 -0.10849,2.06137 -4.44821,5.20767 -5.42466,1.5189 -0.65096,-0.75945 0.75946,-2.38685 3.03781,-4.23122 z"
     
     />
  <path
     className="ID"
     d="m 798.22912,634.63313 2.06136,1.84439 3.90575,-0.54246 1.30192,2.92931 -7.26903,1.4104 -4.23123,0.97643 -3.36329,-0.10848 2.38685,-4.01424 h 3.47177 z"
     
     />
  <path
     className="ID"
     d="m 828.93264,634.63313 -1.19342,3.90576 -9.3304,1.95287 -8.13699,-0.86795 0.217,-2.60383 4.99068,-1.41041 3.68876,2.06137 4.12273,-0.54246 z"
     
     />
  <path
     className="ID"
     d="m 741.92124,625.41122 11.71725,0.75946 1.51889,-2.92931 11.17479,3.36328 1.95288,4.55671 9.11341,1.30191 7.26903,4.12274 -7.16054,2.60384 -6.61807,-2.82083 -5.53314,0.21699 -6.2926,-0.54247 -5.64164,-1.19342 -6.94355,-2.71232 -4.44822,-0.65096 -2.60383,0.86794 -11.06628,-2.92931 -0.86795,-2.92931 -5.53314,-0.54246 4.5567,-6.61808 7.37753,0.43397 4.77369,2.71232 2.60384,0.54248 z"
     
     />
  <path
     className="ID"
     d="m 902.3824,621.50548 -3.47177,4.7737 -0.21698,-5.20767 1.19342,-2.49534 1.41041,-2.38685 1.30192,2.06137 z"
     
     />
  <path
     className="ID"
     d="m 857.4663,602.30221 -2.38684,2.38685 -4.12274,-1.30191 -1.08494,-3.03781 6.18411,-0.32548 z"
     
     />
  <path
     className="ID"
     d="m 877.42902,599.80688 1.95287,5.31616 -4.99068,-2.92931 -5.09917,-0.54248 -3.58028,0.43398 -4.23122,-0.21698 1.62739,-3.79726 7.59451,-0.32548 z"
     
     />
  <path
     className="ID"
     d="m 942.30783,596.33511 -1.08492,22.67503 -1.73589,22.78354 -4.99068,-5.75014 -6.07561,-1.41041 -1.6274,1.95288 -7.81149,0.21699 3.03781,-5.64164 4.01424,-1.95287 -1.08493,-7.59452 -2.49534,-5.75013 -11.60875,-5.96712 -4.99068,-0.54246 -9.00493,-6.50958 -1.95287,3.47178 -2.38685,0.54247 -1.19342,-2.49535 0.1085,-3.0378 -4.55672,-3.47178 6.72657,-2.49534 4.33973,0.1085 -0.43398,-1.84438 h -9.00492 l -2.38684,-4.12274 -5.42466,-1.30192 -2.49533,-3.47177 8.24547,-1.62739 3.14629,-2.27835 9.87286,2.82081 0.97644,2.60383 1.41041,11.28328 6.1841,4.12272 5.42466,-7.37751 7.16053,-4.12274 h 5.42466 l 5.20766,2.38685 4.44821,2.49533 z"
     
     />
  <path
     className="ID"
     d="m 845.64056,568.3439 -4.88218,6.94355 -4.66521,1.30192 -5.85862,-1.30192 -10.30683,0.32548 -5.31616,0.97644 -0.86794,5.31616 5.42465,6.1841 3.36328,-3.1463 11.50025,-2.38684 -0.54246,3.1463 -2.71232,-0.97644 -2.71232,4.12273 -5.53315,2.71233 5.53315,8.89643 -1.19343,2.38684 5.20766,8.02848 -0.32548,4.55672 -3.36327,2.06135 -2.27837,-2.49533 3.2548,-5.64164 -6.18411,2.71233 -1.4104,-1.95287 0.86794,-2.71233 -4.23122,-4.12274 0.75945,-6.72656 -4.23123,2.06137 0.21699,8.13697 -0.21699,9.98136 -4.01425,0.97644 -2.49533,-1.95288 2.06137,-6.40109 -0.65096,-6.72657 -2.60383,-0.10848 -1.73589,-4.7737 2.71232,-4.55671 0.97644,-5.53314 3.25479,-10.52382 1.19342,-2.82082 5.20766,-5.20767 4.8822,2.06137 7.70299,0.97644 7.05205,-0.32548 6.07562,-4.99068 z"
     
     />
  <path
     className="ID"
     d="m 866.90519,570.40527 -0.32547,6.07561 -3.14631,-0.75945 -0.97643,4.23122 2.49534,3.68877 -1.73589,0.86794 -2.38685,-4.44821 -1.84438,-8.89643 1.08494,-5.53314 1.95287,-2.49534 0.54246,3.79726 3.68877,0.54246 z"
     
     />
  <path
     className="ID"
     d="m 749.73274,564.22117 1.08493,4.6652 4.23123,4.01425 4.01424,-1.41042 3.90575,0.43397 3.58027,-3.47177 2.92931,-0.65096 5.85862,1.95287 4.99068,-1.5189 2.82082,-9.65588 2.27835,-2.38685 1.84438,-7.91999 h 7.05205 l 5.42464,1.19343 -3.25479,6.29259 4.7737,6.50959 -0.97644,3.25479 6.94356,6.40108 -7.26903,0.86795 -1.95288,4.77369 0.21699,6.29259 -5.96712,4.7737 -0.43398,6.94355 -2.71231,10.63232 -0.75946,-2.49535 -7.16053,3.14631 -2.27837,-4.23124 -4.33971,-0.43396 -3.0378,-2.27836 -7.37753,2.60384 -2.06137,-3.47179 -4.12273,0.43398 -4.99068,-0.75946 -0.65096,-9.33039 -3.03781,-1.95288 -2.92931,-5.96711 -0.86794,-6.07561 0.65096,-6.50958 z"
     
     />
  <path
     className="ID"
     d="m 724.99633,619.01014 -6.72657,0.10849 -4.88218,-5.75012 -7.70301,-5.75014 -2.49533,-4.23122 -4.44822,-5.64164 -2.92931,-5.20766 -4.55671,-9.76437 -5.31616,-5.85863 -1.84437,-5.96712 -2.38685,-5.42464 -5.64164,-4.33973 -3.36329,-5.96711 -4.77368,-3.90575 -6.72657,-7.70301 -0.65096,-3.58026 3.90575,0.32547 9.65588,1.30192 5.64163,6.83506 4.99068,4.77369 3.47178,2.82082 5.96711,7.48602 6.2926,0.10849 5.20766,4.7737 3.68876,5.85862 4.66521,3.25479 -2.49534,5.64163 3.58027,2.38685 2.16985,0.21698 0.97644,4.8822 2.06137,3.79725 4.44822,0.65096 2.82081,4.44822 -1.84437,8.67943 z"
     
     />
  <path
     d="m 554.01134,367.95731 -3.03781,3.25479 -0.97643,6.50958 6.29259,2.60383 6.2926,3.36329 8.46245,3.90574 8.35397,0.97644 4.12273,3.47178 4.6652,0.65096 7.48602,1.62739 4.99068,-0.10849 0.10849,-2.71233 -1.6274,-4.44821 -0.21698,-2.92931 3.36329,-1.51891 1.62739,5.53314 0.43396,1.30192 5.96712,2.71233 3.47178,-1.08493 5.09917,0.43397 4.88219,-0.21698 -0.54247,-4.23123 -2.82081,-2.27835 4.5567,-0.86795 4.23123,-5.20766 5.85862,-4.33973 5.31616,1.6274 3.47178,-2.92931 3.90575,4.33972 -1.30192,2.92931 6.61807,1.08493 1.08494,2.60383 -1.84439,1.30192 1.51891,4.23123 -4.55672,-1.19342 -6.72656,4.77368 0.97644,4.01425 -2.16987,5.85862 0.32548,3.36328 -1.73588,5.75014 -4.99068,-1.6274 0.97644,7.26903 -1.08493,2.38684 1.08493,2.92932 -2.71233,1.6274 -4.7737,-11.0663 h -1.62739 l -0.32548,4.55671 -3.90575,-3.68875 1.30192,-3.90576 2.60383,-0.43397 1.73589,-5.85863 -3.68876,-1.19342 -5.53314,0.1085 -5.85862,-0.97644 -1.30192,-4.88219 -2.92931,-0.32548 -5.31616,-3.0378 -1.30191,4.77369 4.99067,3.68877 -3.25479,2.60383 -0.97644,2.49534 4.01424,1.84438 -0.32548,4.23122 2.82083,5.20767 1.73588,5.75013 -0.54246,2.60383 -4.12273,-0.10849 -7.16055,1.41041 0.97644,5.20766 -2.60383,4.12274 -8.13698,4.77369 -5.75013,8.13698 -4.12273,4.44821 -5.42465,4.5567 0.32547,3.14631 -2.82081,1.73589 -5.20766,2.49533 -2.82083,0.32548 -1.30191,5.31616 2.06137,9.11341 0.75945,5.75013 -2.06137,6.61808 0.75945,11.82573 -3.1463,0.32548 -2.49533,5.31616 2.06136,2.38685 -5.53314,1.95287 -1.84438,4.6652 -2.38685,2.06136 -6.07561,-6.50957 -3.36328,-9.76437 -2.71232,-7.05205 -2.38685,-3.25479 -3.68877,-6.72657 -2.16985,-8.67943 -1.51891,-4.33973 -6.40108,-9.54738 -3.79726,-13.56163 -2.82082,-8.89643 -0.86795,-8.46246 -1.84437,-6.50958 -8.35397,4.23123 -4.33972,-0.86794 -8.78793,-8.46245 2.60383,-2.49535 -2.06137,-2.71232 -7.703,-5.96712 3.47177,-4.66519 h 13.12767 l -1.95289,-5.96712 -3.79725,-3.47178 -1.5189,-5.42464 -4.33972,-3.03781 5.31616,-7.37753 7.05204,0.54247 4.88218,-7.26903 2.38685,-7.05205 4.23123,-7.05205 -1.08493,-4.99068 4.12273,-4.01423 -5.53314,-3.36329 -3.1463,-4.7737 -3.58027,-6.0756 2.16987,-3.0378 9.2219,1.73589 6.1841,-1.08494 4.12274,-5.85862 8.35396,8.24547 0.86795,5.64164 3.25479,3.58027 0.65096,3.58027 -4.44822,-0.97644 3.47178,7.70301 6.72656,4.33971 z"
     id="IN"
     name="India"
     />
  <path
     d="m 338.54422,308.50314 1.95287,-0.21699 5.75013,-5.09917 2.06136,-0.54246 2.06137,2.06136 -1.30191,3.36328 4.23122,3.68877 1.41042,-0.43398 2.71232,5.20767 5.75013,1.41041 4.6652,3.47178 8.35396,1.19342 8.67945,-1.84438 0.21698,-1.62739 4.7737,-1.30193 3.25479,-4.01423 3.90574,0.21698 2.16986,-1.30192 4.23122,0.65096 7.16055,3.58027 4.6652,0.75945 7.91999,6.07561 4.33971,0.32548 1.84439,5.75013 -0.65096,8.67944 -0.54247,5.09917 2.71233,1.08493 -1.73589,3.79725 2.92932,5.53316 1.30191,4.4482 4.66519,1.19343 1.19343,4.44821 -4.23122,6.2926 3.47177,3.68876 3.03781,4.23123 6.1841,3.0378 1.08493,6.07561 2.92931,1.19343 0.97644,3.14629 -8.13698,3.68876 -1.19343,8.02849 -11.50025,-2.06137 -6.72656,-1.6274 -6.83507,-0.86794 -3.58027,-8.57094 -3.03781,-1.19343 -4.4482,1.19343 -5.53315,3.36327 -7.59451,-2.27835 -6.61807,-5.42465 -5.96712,-1.95287 -4.7737,-6.61807 -5.64163,-9.22191 -3.0378,1.08492 -4.01424,-2.27835 -1.84439,2.71233 -3.79725,-3.68877 -0.54247,-3.68876 h -1.84438 l 0.21698,-5.09917 -3.79725,-5.20766 -7.703,-3.90575 -4.99068,-6.61808 0.54247,-5.42464 2.49533,-2.38685 -0.97643,-4.01425 -4.12273,-2.16985 -5.09918,-8.24547 -4.12273,-5.53314 0.75944,-2.16987 -3.14629,-7.91999 3.58027,-2.06137 1.30192,2.71233 3.47178,3.1463 z"
     id="IR"
     name="Iran"
     />
  <path
     d="m 332.5771,319.35244 5.09918,8.24547 4.12273,2.16985 0.97643,4.01425 -2.49533,2.38685 -0.54247,5.42464 4.99068,6.61808 7.703,3.90575 3.79725,5.20766 -0.21698,5.09917 h 1.84438 l 0.54247,3.68876 3.79725,3.68877 -3.58027,-0.32548 -4.01424,-0.65096 -3.58027,6.72657 -11.06628,-0.54247 -18.22683,-13.99559 -9.3304,-4.88219 -7.37752,-1.95288 -3.36329,-8.46245 11.93424,-7.26903 1.08492,-8.35397 -1.30192,-5.09916 2.92931,-1.73589 2.27837,-4.33973 2.27835,-1.08493 6.83506,0.97645 2.27835,1.73588 z"
     id="IQ"
     name="Iraq"
     />
  <path
     d="m 284.4062,346.47569 0.43398,2.82082 -0.65096,1.08493 h 0.10849 l -0.75945,2.16986 -2.27835,-0.86794 -0.75945,4.5567 1.62739,0.75946 -1.41041,0.97643 -0.10849,1.84438 2.71232,-0.86794 0.43397,2.71233 -1.95287,11.06628 -0.75945,-1.73589 -4.23123,-10.19834 1.5189,-2.27836 -0.43397,-0.43396 1.19342,-3.2548 0.65096,-5.20766 0.65096,-1.84438 h 0.1085 1.95287 l 0.43397,-1.19343 z"
     id="IL"
     name="Israel"
     />
  <path
     d="m 305.01988,354.17869 -0.97644,1.08493 -11.28327,3.47179 6.50958,7.05204 -1.7359,1.08493 -0.75944,2.38685 -4.44822,0.97643 -1.19342,2.49534 -2.27835,2.16987 -6.72657,-1.19343 -0.32548,-0.97644 1.95287,-11.06628 -0.43397,-2.71233 0.65096,-2.06137 -0.43397,-4.33972 0.75945,-2.16986 6.83506,2.82081 10.52382,-7.48601 z"
     id="JO"
     name="Jordan"
     />
  <path
     className="JP"
     d="m 858.76821,340.40008 1.73589,2.38685 -1.4104,4.23123 -3.36329,-2.27836 -2.27835,1.6274 0.10849,4.01424 -4.6652,-1.95287 -1.30192,-3.25479 1.41041,-4.23124 3.68877,0.86795 1.08493,-2.92931 z"
     
     />
  <path
     className="JP"
     d="m 885.4575,319.56942 0.65096,5.53314 2.71232,3.47178 -0.65096,4.88219 -5.85862,3.25479 -9.98136,0.43397 -4.77369,8.02849 -5.09917,-2.71233 -2.60384,-5.20766 -9.3304,1.5189 -5.53314,3.25479 -6.72656,0.21699 8.02848,5.09916 0.86795,11.82574 -2.71233,2.92931 -3.90575,-2.71232 -0.97643,-6.29259 -4.44822,-1.95287 -4.33972,-4.7737 4.6652,-2.16986 1.19343,-4.44822 4.23122,-3.58026 2.16986,-4.7737 10.52382,-2.06136 6.83507,1.4104 V 318.376 l 5.53314,3.36329 4.88218,-6.94356 1.84438,-2.71232 -1.08493,-8.46245 -5.53315,-7.81151 -0.21698,-4.33972 5.20766,-1.30192 8.89643,9.65588 3.03781,5.53315 -1.41042,7.05205 z"
     
     />
  <path
     className="JP"
     d="m 872.54683,270.96456 4.88219,1.4104 1.95287,-2.82081 6.50958,7.70299 -6.94356,1.84439 -0.43396,6.83506 -11.82575,-4.6652 1.73589,7.48602 -6.1841,0.10849 -5.09917,-6.83506 -0.65096,-5.31616 5.64164,-0.32548 -4.77369,-9.54738 -1.95287,-5.31616 11.39176,7.16054 z"
     
     />
  <path
     d="m 457.12708,207.93012 4.77369,-0.32548 9.98136,-6.2926 -0.86794,2.16986 9.11341,5.09918 19.85422,16.9249 1.19342,-3.47177 9.11342,3.79725 6.72656,-1.73588 3.58027,1.19342 4.44822,3.90574 4.33972,1.30192 3.58027,2.92931 6.50958,-0.97644 4.77369,4.12274 -2.06137,4.55671 -4.12274,0.65095 2.71233,6.72657 -1.73589,3.1463 -11.71724,-2.27836 1.08493,12.25972 -2.16986,1.51889 -9.87287,2.71233 9.54739,11.93424 -3.14629,1.73589 1.84437,4.01423 -3.79725,-1.08492 -3.68876,-2.49535 -8.57095,-0.65096 -9.3304,-0.21698 -1.73589,0.75946 -8.89643,-2.92932 -2.71232,1.5189 0.54247,4.01425 -9.98136,-2.38685 -3.36329,0.97643 -0.32548,3.03781 -2.82081,1.30192 -5.85862,4.77368 -0.97644,4.99068 h -2.16987 l -2.49533,-3.25479 -7.26903,-0.21698 -2.71233,-5.64164 -2.82081,-0.10849 -1.62741,-6.94356 -8.24547,-4.99068 -9.33039,0.54248 -6.18411,0.97643 -7.16053,-6.18411 -5.20767,-2.60383 -9.98136,-4.88218 -1.19342,-0.54246 -13.01916,4.01424 6.72657,25.38737 -2.82083,0.32547 -5.20766,-5.42465 -4.23122,-1.95287 -6.07562,1.41041 -1.95287,2.38685 -0.65096,-1.73589 0.65096,-2.82083 -1.62739,-2.38684 -7.05204,-2.38685 -4.01425,-6.18409 -3.47178,-1.7359 -0.65096,-2.27835 5.53315,0.65096 -1.08493,-4.99068 4.44821,-1.08493 5.09918,0.97643 -0.75946,-6.61807 -2.06137,-4.23123 -5.42464,0.32548 -5.09918,-1.62739 -5.53314,2.92931 -4.77369,1.51891 -3.0378,-1.19343 -0.217,-3.47177 -4.66519,-4.55672 -3.90575,0.21699 -5.75013,-4.5567 1.84438,-5.20767 -1.95287,-1.30192 2.38684,-7.48601 6.50958,3.90574 -0.65096,-4.88218 8.78794,-7.26903 8.24547,-0.21699 13.01916,4.66521 7.16054,2.71231 4.77369,-2.82081 8.35397,-0.1085 7.91999,3.47178 0.86794,-2.06137 7.59451,0.32548 0.21698,-3.1463 -10.19834,-4.66519 3.79726,-3.2548 -1.62739,-1.73588 4.33971,-1.73589 -5.53314,-4.55671 1.51891,-2.27835 18.44381,-2.27835 1.84437,-1.62739 11.82574,-2.49535 3.36329,-2.71233 9.87286,1.41041 4.7737,6.83506 4.6652,-1.62739 7.70299,2.27835 z"
     id="KZ"
     name="Kazakhstan"
     />
  <path
     d="m 524.60973,283.54974 -0.21698,1.51891 -7.48601,3.68876 -1.08494,2.82082 -6.94355,0.75945 -0.65096,4.44821 -6.29259,-0.97644 -3.47179,1.41041 -4.4482,3.25479 1.30191,1.6274 -1.19342,1.51891 -10.41533,1.08492 -7.70301,-2.27835 -5.96711,0.54247 -0.65095,-3.90576 6.50957,1.08493 1.5189,-2.06137 4.44822,0.65096 5.75012,-4.99068 -7.81149,-3.68875 -3.47178,1.73588 -4.99067,-2.60383 3.25479,-4.44821 -1.84439,-0.65096 0.32548,-3.03781 3.36329,-0.97643 9.98136,2.38685 -0.54247,-4.01425 2.71232,-1.5189 8.89643,2.92932 1.73589,-0.75946 9.3304,0.21698 8.57095,0.65096 3.68876,2.49535 z"
     id="KG"
     name="Kyrgyzstan"
     />
  <path
     d="m 729.98701,479.27114 1.95288,4.6652 0.10849,8.35396 -9.76438,5.42465 3.03781,4.12274 -6.40109,0.54246 -4.99068,2.82082 -5.20766,-0.97643 -2.82082,-3.68877 -3.79726,-7.16053 -2.27835,-8.46247 3.36329,-5.75012 7.703,-1.30191 5.75013,0.97643 5.42465,2.71232 2.16986,-4.77369 z"
     id="KH"
     name="Cambodia"
     />
  <path
     d="m 798.4461,315.3382 v -0.65096 l 2.71233,0.21698 0.65095,-3.0378 3.90575,-0.43397 2.16987,-0.43398 v -1.62739 l 9.00491,8.13697 3.58028,4.55672 3.68875,8.02847 -0.54246,3.79726 -4.6652,1.30192 -3.36329,2.92931 -4.99068,0.54246 -2.27835,-3.79725 -1.19342,-5.20766 -5.75013,-7.16055 3.68876,-1.19342 z"
     id="KR"
     name="Republic of Korea"
     />
  <path
     d="m 358.61542,369.47621 1.6274,3.03781 -0.32548,1.62739 2.60383,5.20766 -4.23123,0.21699 -1.84437,-3.36328 -5.42466,-0.65096 3.58027,-6.72657 z"
     id="KW"
     name="Kuwait"
     />
  <path
     d="m 729.98701,479.27114 -5.75013,-2.49534 -2.16986,4.77369 -5.42465,-2.71232 1.62739,-3.1463 -0.43396,-5.85862 -5.75014,-6.07561 -1.41041,-6.94356 -5.42464,-5.64164 -4.66521,-0.43396 -0.86795,2.38684 -3.47177,0.21699 -2.06137,-1.19343 -5.75012,4.12274 -1.08493,-6.29259 0.43397,-7.26904 -4.12274,-0.32548 -0.97644,-4.23122 -2.92931,-2.16987 0.86794,-2.49533 4.44822,-4.55671 0.86794,1.6274 3.25479,0.21698 -2.16985,-8.02848 2.92931,-0.97643 4.33972,5.53314 3.79725,6.29259 h 7.37753 l 3.25479,6.07561 -3.58027,1.84438 -1.30192,2.49534 7.91999,4.23122 6.1841,8.24547 4.7737,6.07562 5.31616,4.88218 2.16985,4.88218 z"
     id="LA"
     name="Lao PDR"
     />
  <path
     d="m 284.4062,346.47569 -1.5189,0.10849 -0.43397,1.19343 h -1.95287 l 1.41041,-5.75013 2.38684,-4.88219 v -0.21698 l 2.71232,0.32548 1.30192,2.71232 -2.92931,2.71232 z"
     id="LB"
     name="Lebanon"
     />
  <path
     d="m 573.86556,535.03655 -5.20766,1.62739 -3.1463,-5.53314 -1.5189,-9.98136 2.16986,-11.28327 4.44822,3.79725 3.0378,4.88219 3.36328,7.26903 -0.65096,7.26903 z"
     id="LK"
     name="Sri Lanka"
     />
  <path
     d="m 685.0709,428.93038 -4.44822,4.55671 -0.86794,2.49533 -3.25478,1.62741 -3.03781,3.03779 -4.23123,0.32548 -1.62739,7.48603 -2.38685,1.30191 3.79726,6.07561 4.44821,5.09917 3.1463,4.6652 -1.51891,5.96712 -1.95287,1.30192 1.95287,3.47177 4.6652,5.53314 1.08494,3.90576 0.21698,3.25478 2.92931,6.40109 -2.82081,6.50958 -2.38685,7.16054 -0.97644,-5.20766 1.41041,-5.31616 -2.38685,-4.12274 -0.21698,-7.59451 -2.82082,-3.68877 -2.92931,-8.24547 -2.16986,-8.78793 -3.36328,-5.85862 -3.47179,3.58027 -6.29259,4.88219 -3.58027,-0.54247 -3.90575,-1.62739 0.97644,-8.67944 -2.16986,-6.50958 -5.75013,-8.02849 0.32548,-2.49533 -3.68876,-0.97644 -4.99068,-5.64164 -1.19342,-5.64164 2.27835,1.08494 -0.65096,-4.99068 2.71233,-1.6274 -1.08493,-2.92932 1.08493,-2.38684 -0.97644,-7.26903 4.99068,1.6274 1.73588,-5.75014 -0.32548,-3.36328 2.16987,-5.85862 -0.97644,-4.01425 6.72656,-4.77368 4.55672,1.19342 -1.51891,-4.23123 1.84439,-1.30192 -1.08494,-2.60383 3.36329,-0.54247 2.92931,4.12274 2.92931,1.6274 1.41041,5.31615 0.97644,5.75013 -4.55672,5.85863 0.75946,8.24547 6.07561,-1.19343 2.60383,6.40109 4.01425,1.41041 -0.86796,5.75013 4.8822,2.60383 2.82081,1.30191 4.12274,-2.06136 z"
     id="MM"
     name="Myanmar"
     />
  <path
     d="m 628.43754,230.71364 4.33973,-1.30191 6.1841,-0.86795 5.85863,0.97644 7.16053,3.1463 5.31616,3.47178 h 4.99068 l 7.37753,1.08493 3.90575,-1.73589 6.40108,-1.08494 4.77369,-4.77368 3.68877,0.75944 4.23122,2.27836 6.07561,-0.65095 0.65095,5.09916 0.32548,6.83506 3.03781,2.71233 2.49535,-0.86794 5.96711,1.08492 2.71232,-2.49534 5.64164,2.16986 7.8115,4.7737 0.86794,2.38685 -4.7737,-0.75946 -7.37751,0.86794 -2.71233,1.95289 -1.41041,4.5567 -6.94356,2.60383 -3.47177,3.68877 -6.40109,-1.41042 -3.47177,-0.65095 -0.54247,4.44821 3.1463,2.60384 2.06137,2.27835 -2.60383,2.38684 -2.16987,3.68876 -5.31616,2.38685 -8.24547,0.21698 -7.81149,2.38685 -4.7737,3.68877 -3.58027,-2.06137 h -6.72656 l -10.19834,-4.23123 -6.07561,-0.97644 -6.94355,0.97644 -12.25972,-1.62739 -6.0756,0.21698 -5.09918,-4.12273 -5.42465,-6.2926 -3.68876,-0.75945 -8.67944,-4.33972 -7.81149,-0.86794 -7.05205,-1.19342 -3.25479,-3.03781 -1.51891,-7.91999 -6.2926,-5.53315 -8.89642,-2.49534 -6.1841,-3.58026 -3.58027,-4.7737 5.09918,-1.19342 7.26903,-5.75013 6.40108,-3.1463 5.75014,2.06137 5.64163,0.10849 5.20767,3.1463 5.42464,0.21698 8.67944,1.7359 2.60384,-4.7737 -4.33973,-3.90575 1.41042,-6.94355 7.59451,2.71233 5.20766,0.86794 7.26903,1.73589 3.90575,4.99068 z"
     id="MN"
     name="Mongolia"
     />
  <path
     className="MY"
     d="m 702.32129,534.92806 1.5189,0.65096 3.79725,4.23122 2.71233,4.6652 0.65096,4.66521 -0.54246,3.14629 0.65096,2.38685 0.54246,4.12273 2.27835,1.95287 2.49534,6.18411 v 2.27835 l -4.33972,0.54246 -5.96711,-5.20766 -7.37753,-5.53314 -0.86794,-3.58028 -3.68877,-4.66519 -1.08492,-5.75013 -2.38685,-3.79725 0.43397,-5.09918 -1.5189,-2.92931 0.97643,-1.19343 5.20767,3.03781 0.65095,3.58026 4.01425,-0.86794 z"
     
     />
  <path
     className="MY"
     d="m 799.74801,549.46612 -5.42464,-1.19343 h -7.05205 l -1.84438,7.91999 -2.27835,2.38685 -2.82082,9.65588 -4.99068,1.5189 -5.85862,-1.95287 -2.92931,0.65096 -3.58027,3.47177 -3.90575,-0.43397 -4.01424,1.41042 -4.23123,-4.01425 -1.08493,-4.6652 4.5567,2.38685 4.6652,-1.30192 1.08494,-5.85863 2.60383,-1.30191 7.37752,-1.5189 4.12274,-5.53314 2.82081,-4.33972 3.03781,3.58026 1.19343,-2.38684 2.92931,0.21698 0.10848,-4.44821 0.1085,-3.47178 4.44822,-4.77369 2.82081,-5.42465 2.49534,-0.10849 3.36328,3.58027 0.43398,3.0378 4.12273,1.95288 5.20767,2.06136 -0.21699,2.71232 -4.12273,0.32548 1.19342,3.47179 z"
     
     />
  <path
     d="m 598.92745,384.12277 0.21698,2.92931 1.6274,4.44821 -0.10849,2.71233 -4.99068,0.10849 -7.48602,-1.62739 -4.6652,-0.65096 -4.12273,-3.47178 -8.35397,-0.97644 -8.46245,-3.90574 -6.2926,-3.36329 -6.29259,-2.60383 0.97643,-6.50958 3.03781,-3.25479 2.06137,-1.62739 5.20766,2.16985 6.94356,4.55671 3.58026,0.97643 2.71233,3.36329 4.88219,1.30192 5.42465,3.14629 7.05204,1.51891 z"
     id="NP"
     name="Nepal"
     />
  <path
     className="OM"
     d="m 397.99839,462.23774 -2.38685,-4.88219 -5.64164,-11.50025 17.68437,-6.94356 2.82081,-13.8871 -3.25478,-4.99068 v -2.82083 l 1.41041,-2.82081 -0.217,-2.82083 2.60384,-1.4104 -1.19342,-0.97643 v -4.55672 h 3.0378 l 3.25479,4.7737 3.58027,2.49533 4.44822,0.97644 3.68875,1.19343 3.14631,4.01424 1.84437,2.27836 2.16987,0.97643 0.21698,1.5189 -1.84438,4.12274 -0.75945,1.95287 -2.38685,2.27836 -1.84438,4.77368 -2.71232,-0.43396 -1.08494,1.73588 -0.75944,3.47178 1.19342,4.6652 -0.54246,0.86794 h -2.71233 l -3.58027,2.60383 -0.32548,3.36329 -1.30191,1.51891 -3.79726,-0.1085 -2.16986,1.73589 0.21698,2.82081 -2.82081,1.95288 -3.36329,-0.65096 -3.90574,2.38685 z"
     
     />
  <path
     className="OM"
     d="m 411.45152,399.0948 -1.41041,-2.38685 1.51891,-2.27835 0.75944,0.54247 -0.21698,2.92931 z"
     
     />
  <path
     d="m 525.80316,330.96119 -4.12274,5.85862 -6.1841,1.08494 -9.2219,-1.73589 -2.16987,3.0378 3.58027,6.0756 3.1463,4.7737 5.53314,3.36329 -4.12273,4.01423 1.08493,4.99068 -4.23123,7.05205 -2.38685,7.05205 -4.88218,7.26903 -7.05204,-0.54247 -5.31616,7.37753 4.33972,3.03781 1.5189,5.42464 3.79725,3.47178 1.95289,5.96712 h -13.12767 l -3.47177,4.66519 -4.5567,-1.73588 -2.38685,-4.99068 -5.31616,-5.31616 -10.8493,1.30192 -9.76438,0.10849 -8.24547,0.97644 1.19343,-8.02849 8.13698,-3.68876 -0.97644,-3.14629 -2.92931,-1.19343 -1.08493,-6.07561 -6.1841,-3.0378 -3.03781,-4.23123 -3.47177,-3.68876 10.41532,3.58026 5.75014,-1.08493 3.68876,0.86795 0.97644,-1.51891 4.23122,0.65096 7.16054,-2.92931 -0.86794,-5.85862 2.49533,-4.01424 h 4.44822 l 0.21699,-1.84438 4.33972,-0.97644 2.27835,0.65096 1.95287,-1.95287 -1.19342,-4.23123 1.5189,-4.12274 3.36329,-1.84437 -3.36329,-4.55672 5.64164,0.21699 0.97644,-2.49534 -0.86794,-2.71232 2.16985,-2.92932 -1.5189,-3.47177 -2.06137,-2.92931 2.60384,-3.03781 5.75013,-1.41041 6.40108,-0.86794 2.60383,-1.19342 3.14631,-0.86795 5.09916,3.25479 3.1463,5.42466 z"
     id="PK"
     name="Pakistan"
     />
  <path
     className="PH"
     d="m 850.08878,519.63054 0.97643,4.6652 0.65096,3.90575 -1.73589,6.29259 -2.71233,-7.05205 -2.60383,3.58027 2.27835,5.09918 -1.51889,3.25479 -7.48602,-4.01425 -2.06137,-5.09916 1.6274,-3.25479 -4.12274,-3.36329 -1.73588,2.92931 -2.82083,-0.32547 -4.33972,3.90574 -1.08492,-2.06137 1.95287,-5.85862 3.68876,-1.95287 3.1463,-2.60383 2.38685,3.14629 4.5567,-1.84438 0.75945,-3.1463 4.33973,-0.21698 -0.86795,-5.31616 5.31616,3.25479 0.75945,3.47178 z"
     
     />
  <path
     className="PH"
     d="m 834.2488,506.61137 -1.95288,2.27837 -1.5189,4.44821 -1.73589,2.06137 -4.23123,-4.7737 1.08493,-1.95288 1.41041,-1.95287 0.21699,-4.23122 3.36328,-0.43398 -0.54246,4.6652 3.90575,-6.72657 z"
     
     />
  <path
     className="PH"
     d="m 801.37541,513.33795 -7.703,6.61807 2.60383,-4.88218 4.12273,-4.33973 3.2548,-4.77369 2.49534,-6.94356 1.73589,5.75014 -3.79726,3.79725 z"
     
     />
  <path
     className="PH"
     d="m 820.36169,495.4366 3.90575,2.16986 h 3.79726 l 0.21698,2.82082 -2.49534,3.0378 -3.68876,2.06137 -0.54247,-3.25479 0.1085,-3.58028 z"
     
     />
  <path
     className="PH"
     d="m 842.16879,493.48372 2.60383,7.81151 -4.88219,-1.84439 0.32548,2.38685 1.95288,4.23122 -2.82083,1.6274 -0.65095,-4.99068 -1.95288,-0.32548 -1.30191,-4.23123 3.58026,0.54246 -0.32547,-2.60383 -4.33973,-5.31616 5.85863,0.1085 z"
     
     />
  <path
     className="PH"
     d="m 817.21539,487.19113 -0.97644,6.07561 -2.92931,-3.47178 -3.79725,-5.31616 5.20766,0.21699 z"
     
     />
  <path
     className="PH"
     d="m 810.16335,449.32707 4.12273,2.06137 1.51891,-1.84439 0.86794,1.73589 -0.43398,2.92931 2.82083,4.99068 -0.65096,5.75014 -3.14631,2.27835 -0.10848,5.64164 2.16985,5.53314 3.25479,0.75945 2.60383,-0.75945 8.13699,3.79725 -0.1085,3.79726 2.27835,1.73589 -0.32548,3.14629 -5.09916,-3.36328 -2.71233,-3.68877 -1.30192,2.60384 -4.33972,-4.23123 -5.42465,1.08493 -3.25479,-1.5189 -0.1085,-2.92931 1.73589,-1.73589 -2.06137,-1.62739 -0.43396,2.49533 -3.58027,-4.01424 -1.41041,-3.0378 -1.19342,-6.61807 2.82081,2.27835 -1.19342,-10.9578 0.86794,-6.29259 z"
     
     />
  <path
     d="m 806.47458,283.22426 1.5189,1.19343 -2.38684,-0.43398 -1.08493,2.38685 -0.32548,2.27836 3.03781,4.99068 -2.06137,1.51889 -0.32548,1.19343 -0.97644,2.06136 -3.1463,1.19343 -1.5189,1.84438 1.41041,2.92931 -0.32548,0.75945 2.82082,1.19342 4.7737,3.03781 v 1.62739 l -2.16987,0.43398 -3.90575,0.43397 -0.65095,3.0378 -2.71233,-0.21698 v 0.65096 l -3.47177,-1.30192 -0.1085,1.30192 -1.41041,0.54246 -0.75945,-1.30192 -1.84438,-0.65096 -2.06136,-1.08492 0.10848,-3.03781 0.97644,-0.86795 -1.08492,-1.19342 -0.43398,-3.79725 -0.97643,-1.08493 -3.68877,-0.75945 -3.68876,-1.84438 2.27835,-4.44822 4.23122,-3.68876 1.19343,-4.99067 3.90575,2.16985 4.99068,0.32548 -3.03781,-3.68876 6.94356,-2.92931 v -3.90575 z"
     id="KP"
     name="Dem. Rep. Korea"
     />
  <path
     d="m 283.53826,352.5513 0.43397,4.33972 -0.65096,2.06137 -2.71232,0.86794 0.10849,-1.84438 1.41041,-0.97643 -1.62739,-0.75946 0.75945,-4.5567 z"
     id="PS"
     name="Palestine"
     />
  <path
     d="m 383.13485,406.68931 -1.6274,0.54247 -1.95287,-1.41041 -0.86795,-5.09918 1.19343,-3.58026 1.62739,-0.75946 1.95288,2.16987 0.54246,4.01424 z"
     id="QA"
     name="Qatar"
     />
  <path
     d="m 351.02091,375.55182 5.42466,0.65096 1.84437,3.36328 4.23123,-0.21699 2.92931,6.07562 3.1463,1.51889 1.30192,2.49534 4.33972,2.92932 0.75945,2.82081 -0.43397,2.38685 0.97644,2.27835 1.95287,1.95288 0.97644,2.27835 1.08493,1.73589 1.95287,1.41041 1.6274,-0.54247 1.41041,2.71233 0.32548,1.5189 2.92931,7.16054 18.33531,3.47177 1.08494,-1.51889 3.25478,4.99068 -2.82081,13.8871 -17.68437,6.94356 -17.25039,2.71231 -5.42464,3.14631 -3.79726,7.26903 -2.82082,1.19342 -1.62739,-2.27835 -2.27835,0.32547 -5.96712,-0.75945 -1.19343,-0.65096 -6.94354,0.1085 -1.62741,0.65096 -2.60383,-1.73589 -1.4104,3.36328 0.86794,2.92931 -2.60383,2.27835 -0.97644,-3.03779 -1.95287,-2.06137 -0.54247,-2.82083 -3.36328,-2.49533 -3.58028,-5.85862 -2.06136,-5.64164 -4.44822,-4.7737 -2.71232,-1.19342 -4.44821,-6.61807 -0.97644,-4.7737 v -4.12273 l -3.90574,-7.8115 -3.03781,-2.71232 -3.25479,-1.41041 -2.27835,-4.01424 0.21698,-1.5189 -1.95287,-3.68877 -1.84439,-1.51889 -2.71232,-5.20768 -4.12274,-5.53314 -3.36328,-4.77368 h -2.92931 l 0.54247,-3.79727 0.10848,-2.49533 0.43398,-2.82082 6.72657,1.19343 2.27835,-2.16987 1.19342,-2.49534 4.44822,-0.97643 0.75944,-2.38685 1.7359,-1.08493 -6.50958,-7.05204 11.28327,-3.47179 0.97644,-1.08493 7.37752,1.95288 9.3304,4.88219 18.22683,13.99559 z"
     id="SA"
     name="Saudi Arabia"
     />
  <path
     d="m 301.65659,345.71624 -10.52382,7.48601 -6.83506,-2.82081 h -0.10849 l 0.65096,-1.08493 -0.43398,-2.82082 0.97644,-3.79726 2.92931,-2.71232 -1.30192,-2.71232 -2.71232,-0.32548 -1.19342,-5.31616 1.08493,-2.92931 1.4104,-1.51891 1.30193,-1.5189 -0.217,-3.79726 2.06137,1.30192 6.07562,-1.95287 3.25479,1.30191 h 4.77368 l 6.1841,-2.60383 3.14631,0.1085 6.40109,-1.08494 -2.27837,4.33973 -2.92931,1.73589 1.30192,5.09916 -1.08492,8.35397 z"
     id="SY"
     name="Syria"
     />
  <path
     d="m 716.64237,478.83717 -5.75013,-0.97643 -7.703,1.30191 -3.36329,5.75012 2.27835,8.46247 -5.75012,-3.2548 -5.20767,0.21699 0.32547,-5.53315 h -5.31614 l 0.21698,7.70301 -2.38685,10.19834 -1.5189,6.18411 0.75945,4.99067 4.01424,0.21699 2.92931,6.40108 1.41041,5.96712 3.68877,4.01424 3.68876,0.75946 3.36328,3.68876 -1.84438,2.82081 -4.01425,0.86794 -0.65095,-3.58026 -5.20767,-3.03781 -0.97643,1.19343 -2.49534,-2.60383 -1.30191,-3.47178 -3.47178,-3.90575 -3.1463,-3.36329 -0.75945,4.12274 -1.41041,-3.90574 0.43397,-4.33973 1.30192,-6.61807 2.38685,-7.16054 2.82081,-6.50958 -2.92931,-6.40109 -0.21698,-3.25478 -1.08494,-3.90576 -4.6652,-5.53314 -1.95287,-3.47177 1.95287,-1.30192 1.51891,-5.96712 -3.1463,-4.6652 -4.44821,-5.09917 -3.79726,-6.07561 2.38685,-1.30191 1.62739,-7.48603 4.23123,-0.32548 3.03781,-3.03779 3.25478,-1.62741 2.92931,2.16987 0.97644,4.23122 4.12274,0.32548 -0.43397,7.26904 1.08493,6.29259 5.75012,-4.12274 2.06137,1.19343 3.47177,-0.21699 0.86795,-2.38684 4.66521,0.43396 5.42464,5.64164 1.41041,6.94356 5.75014,6.07561 0.43396,5.85862 z"
     id="TH"
     name="Thailand"
     />
  <path
     d="m 477.41527,298.0878 -1.5189,2.06137 -6.50957,-1.08493 0.65095,3.90576 5.96711,-0.54247 7.70301,2.27835 10.41533,-1.08492 3.36328,6.50957 1.62739,-0.75945 4.01425,1.62739 0.54247,2.71233 1.95287,3.90575 h -5.85863 l -4.12273,-0.54246 -2.71233,3.14629 -2.38685,0.65096 -1.62739,1.51891 -2.92931,-2.27836 -0.97644,-5.85863 -1.84437,-0.32548 0.10848,-2.16985 -3.58027,-1.51891 -1.84437,2.38685 0.21698,2.82082 -0.65096,0.97644 -3.47177,-0.1085 -0.97644,3.14631 -2.27835,-1.30193 -3.68876,2.16987 -1.95288,-0.75946 1.41041,-7.05204 -2.60384,-5.20767 -4.5567,-1.6274 0.65096,-3.03779 4.7737,0.32548 1.62739,-3.79726 0.54246,-4.44821 7.05205,-1.62741 -0.21699,3.2548 1.41041,1.84438 z"
     id="TJ"
     name="Tajikistan"
     />
  <path
     d="m 457.12708,318.05052 -1.73589,-0.21699 -3.1463,-1.84438 -0.32548,2.38685 -4.5567,1.41041 0.21699,5.53315 -2.82082,2.16985 -4.33973,0.97644 -0.43396,3.1463 -4.23124,0.97644 -6.40108,-2.71233 -1.84439,-5.75013 -4.33971,-0.32548 -7.91999,-6.07561 -4.6652,-0.75945 -7.16055,-3.58027 -4.23122,-0.65096 -2.16986,1.30192 -3.90574,-0.21698 -3.25479,4.01423 -4.7737,1.30193 -2.06137,-4.8822 -0.65096,-7.26903 -4.99068,-2.38684 0.43398,-4.6652 -3.79725,-0.43397 -0.1085,-5.85862 5.75012,1.73589 4.44822,-2.16987 -5.09917,-4.23123 -2.60383,-3.90574 -4.12273,1.73589 0.65095,5.09916 -2.82082,-4.4482 1.95287,-2.38685 6.07562,-1.41041 4.23122,1.95287 5.20766,5.42465 2.82083,-0.32547 6.40108,-0.1085 -1.84438,-3.47177 4.12274,-2.38685 3.68876,-4.01424 8.57094,3.68876 2.06137,5.42464 2.49535,1.41042 5.96712,-0.32548 2.27835,1.30191 4.66519,7.16054 7.70301,4.7737 4.5567,3.25479 6.83507,3.36328 8.35395,3.03781 z"
     id="TM"
     name="Turkmenistan"
     />
  <path
     d="m 841.62632,643.63805 0.10849,-2.06137 -0.54246,-1.4104 0.86794,-1.62739 5.31616,-1.51891 4.33972,-0.32548 1.95288,-0.86794 2.27835,0.86794 -2.38685,1.95287 -6.61808,3.03781 z"
     id="TL"
     name="Timor-Leste"
     />
  <path
     className="TR"
     d="m 308.92563,289.08289 5.96711,-0.32548 6.07561,3.47177 1.41041,2.38685 0.10849,3.36329 4.55671,1.73588 2.60383,1.95287 -3.58027,2.06137 3.14629,7.91999 -0.75944,2.16987 4.12273,5.53314 -2.60383,1.19342 -2.27835,-1.73588 -6.83506,-0.97645 -2.27835,1.08493 -6.40109,1.08494 -3.14631,-0.1085 -6.1841,2.60383 h -4.77368 l -3.25479,-1.30191 -6.07562,1.95287 -2.06137,-1.30192 0.217,3.79726 -1.30193,1.5189 -1.4104,1.51891 -2.49535,-3.1463 1.84439,-2.60383 -3.47178,0.65095 -4.99068,-1.62739 -3.47177,4.01424 -8.67945,0.75946 -5.09916,-3.68877 -6.18411,-0.21699 -1.08492,2.82082 -3.90576,0.86794 -5.85862,-3.68876 -6.2926,0.1085 -4.12273,-6.94356 -4.5567,-3.79725 2.16986,-5.42465 -3.90575,-3.36329 5.53314,-6.61807 8.67944,-0.21698 1.7359,-5.31616 10.8493,0.97643 6.0756,-4.4482 6.29259,-1.95289 9.22191,-0.21698 10.63232,4.88218 8.57094,2.71233 6.2926,-1.08493 4.99068,0.65096 z"
     
     />
  <path
     className="TR"
     d="m 222.3482,294.07356 1.30191,-0.75944 1.19343,-4.33973 -2.92932,-1.84437 5.42466,-2.16987 4.99068,0.86794 0.97643,2.71233 5.20767,2.16987 -0.75946,1.73588 -6.72656,0.32548 -2.16986,2.16986 -4.23123,3.68877 -2.16986,-3.14631 z"
     
     />
  <path
     d="m 803.87075,419.49148 -1.51891,5.75014 -4.33971,-5.96712 -1.62739,-5.09916 2.06136,-6.83507 3.58027,-5.31616 3.25479,2.06137 -0.10849,4.23123 z"
     id="TW"
     name="Taiwan"
     />
  <path
     d="m 472.75007,284.09221 1.84439,0.65096 -3.25479,4.44821 4.99067,2.60383 3.47178,-1.73588 7.81149,3.68875 -5.75012,4.99068 -4.44822,-0.65096 -2.27835,0.1085 -1.41041,-1.84438 0.21699,-3.2548 -7.05205,1.62741 -0.54246,4.44821 -1.62739,3.79726 -4.7737,-0.32548 -0.65096,3.03779 4.5567,1.6274 2.60384,5.20767 -1.41041,7.05204 -4.6652,-1.5189 h -3.25479 l -0.86795,-4.23122 -8.35395,-3.03781 -6.83507,-3.36328 -4.5567,-3.25479 -7.70301,-4.7737 -4.66519,-7.16054 -2.27835,-1.30191 -5.96712,0.32548 -2.49535,-1.41042 -2.06137,-5.42464 -8.57094,-3.68876 -3.68876,4.01424 -4.12274,2.38685 1.84438,3.47177 -6.40108,0.1085 -6.72657,-25.38737 13.01916,-4.01424 1.19342,0.54246 9.98136,4.88218 5.20767,2.60383 7.16053,6.18411 6.18411,-0.97643 9.33039,-0.54248 8.24547,4.99068 1.62741,6.94356 2.82081,0.10849 2.71233,5.64164 7.26903,0.21698 2.49533,3.25479 h 2.16987 l 0.97644,-4.99068 5.85862,-4.77368 z"
     id="UZ"
     name="Uzbekistan"
     />
  <path
     d="m 726.40674,428.17093 -7.05205,5.85862 -4.01424,6.61807 -0.65096,4.8822 5.75014,7.26902 7.05204,9.11342 6.18411,4.33972 4.4482,5.53314 4.33973,12.91067 0.43397,12.25971 -4.6652,4.55671 -6.61807,4.5567 -4.55671,5.75014 -7.16054,6.50958 -2.49534,-4.44822 1.30192,-4.77369 -4.7737,-3.90575 4.99068,-2.82082 6.40109,-0.54246 -3.03781,-4.12274 9.76438,-5.42465 -0.10849,-8.35396 -1.95288,-4.6652 0.21698,-6.94356 -2.16985,-4.88218 -5.31616,-4.88218 -4.7737,-6.07562 -6.1841,-8.24547 -7.91999,-4.23122 1.30192,-2.49534 3.58027,-1.84438 -3.25479,-6.07561 h -7.37753 l -3.79725,-6.29259 -4.33972,-5.53314 2.92931,-1.73589 4.77369,0.10848 5.75013,-0.86794 4.44822,-3.68876 3.36328,2.60383 5.75013,1.30191 -0.32548,4.01425 3.36328,2.82082 z"
     id="VN"
     name="Vietnam"
     />
  <path
     d="m 397.99839,462.23774 -4.33972,1.84437 -0.97644,3.14631 v 2.38685 l -5.85862,2.92931 -9.54738,3.25479 -5.09918,4.88218 -2.71233,0.43397 -1.84437,-0.43397 -3.47179,2.92931 -3.79725,1.30191 -5.09917,0.32548 -1.5189,0.43398 -1.19342,1.84438 -1.6274,0.54247 -0.86795,1.73588 -3.0378,-0.21698 -1.84438,0.97643 -4.33972,-0.32548 -1.73589,-4.12273 v -3.79726 l -1.08492,-2.06137 -1.41042,-5.09916 -1.95287,-2.82083 1.19342,-0.43396 -0.75945,-3.1463 0.65096,-1.30192 -0.43397,-3.03781 2.60383,-2.27835 -0.86794,-2.92931 1.4104,-3.36328 2.60383,1.73589 1.62741,-0.65096 6.94354,-0.1085 1.19343,0.65096 5.96712,0.75945 2.27835,-0.32547 1.62739,2.27835 2.82082,-1.19342 3.79726,-7.26903 5.42464,-3.14631 17.25039,-2.71231 5.64164,11.50025 z"
     id="YE"
     name="Yemen"
     />
  <path
     className="RU"
     d="m 838.15454,226.26543 14.86355,11.93424 -9.65588,-2.16987 4.01424,9.76438 10.41532,6.94355 3.2548,4.77369 -7.05205,-4.12273 0.1085,5.31616 -5.09918,-5.75014 -4.12273,-6.61807 -6.07561,-7.26903 -2.60383,-5.20767 -6.94355,-8.89642 -8.67945,-6.61808 -7.37752,-9.11341 2.06136,-3.0378 -4.77368,-3.03781 1.41041,-0.97644 5.31615,4.33973 7.48602,6.40108 5.64164,6.61807 z"
     
     />
  <path
     className="RU"
     d="m 685.0709,86.09246 -6.40109,0.108496 -9.65587,-0.65096 -1.08493,-0.32548 0.75945,-2.169865 4.55671,-0.542463 9.11341,2.169864 z"
     
     />
  <path
     className="RU"
     d="m 698.74102,75.785618 -1.19342,2.16986 -7.48602,-0.433972 -11.17478,-2.16986 -1.95287,-1.735889 9.00491,0.759451 z"
     
     />
  <path
     className="RU"
     d="m 671.0753,73.181786 3.36329,4.122734 -15.51451,-0.216986 -4.99068,1.301916 -13.56162,-3.58027 -3.68876,-3.688762 3.79725,-0.976437 11.06629,0.216986 z"
     
     />
  <path
     className="RU"
     d="m 327.47793,100.30505 -2.38684,0.43396 -14.64657,-0.759441 -2.49533,-2.495345 -8.57095,-1.518904 -2.16986,-3.146294 3.79726,-1.193424 -1.73589,-3.037798 5.85862,-4.773695 -4.33973,-0.650961 7.26904,-4.882191 -2.71232,-2.495339 7.37752,-2.820819 11.17478,-3.471776 12.69368,-0.976437 5.42465,-1.952874 7.26903,-0.650958 4.55672,2.061366 -1.41042,1.627396 -12.36821,2.712326 -10.7408,2.495338 -9.43889,5.207663 -3.0378,5.424656 -3.58027,5.424656 3.36327,4.665199 z"
     
     />
  <path
     className="RU"
     d="m 807.99348,284.41769 -1.5189,-1.19343 -2.06137,-3.58027 2.71233,-0.10848 -4.23122,-8.13699 -5.09918,-5.85862 3.1463,-2.38685 7.48602,1.19343 -0.65096,-6.72657 -3.03781,-7.37753 0.32548,-2.49533 -1.4104,-6.1841 -7.48602,2.06136 -2.82082,2.60383 h -8.24547 l -6.50959,-6.29258 -9.76436,-4.8822 -10.8493,-2.16985 -6.72657,-6.50958 -4.88219,-4.12274 -4.12273,-2.92931 -8.35396,-6.72657 -6.50958,-2.38684 -9.3304,-2.06137 -6.72657,0.21698 -5.53314,1.19343 -1.84438,3.36328 4.01423,1.51891 2.71233,3.68876 -1.4104,2.16986 0.21698,7.05205 2.06137,3.03779 -4.7737,4.23124 -8.02848,-2.60383 -6.07561,0.65095 -4.23122,-2.27836 -3.68877,-0.75944 -4.77369,4.77368 -6.40108,1.08494 -3.90575,1.73589 -7.37753,-1.08493 h -4.99068 l -5.31616,-3.47178 -7.16053,-3.1463 -5.85863,-0.97644 -6.1841,0.86795 -4.33973,1.30191 -9.2219,-2.82081 -3.90575,-4.99068 -7.26903,-1.73589 -5.20766,-0.86794 -7.59451,-2.71233 -1.41042,6.94355 4.33973,3.90575 -2.60384,4.7737 -8.67944,-1.7359 -5.42464,-0.21698 -5.20767,-3.1463 -5.64163,-0.10849 -5.75014,-2.06137 -6.40108,3.1463 -7.26903,5.75013 -5.09918,1.19342 -1.84438,0.54247 -4.77369,-4.12274 -6.50958,0.97644 -3.58027,-2.92931 -4.33972,-1.30192 -4.44822,-3.90574 -3.58027,-1.19342 -6.72656,1.73588 -9.11342,-3.79725 -1.19342,3.47177 -19.85422,-16.9249 -9.11341,-5.09918 0.86794,-2.16986 -9.98136,6.2926 -4.77369,0.32548 -1.19343,-3.58028 -7.70299,-2.27835 -4.6652,1.62739 -4.7737,-6.83506 -9.87286,-1.41041 -3.36329,2.71233 -11.82574,2.49535 -1.84437,1.62739 -18.44381,2.27835 -1.51891,2.27835 5.53314,4.55671 -4.33971,1.73589 1.62739,1.73588 -3.79726,3.2548 10.19834,4.66519 -0.21698,3.1463 -7.59451,-0.32548 -0.86794,2.06137 -7.91999,-3.47178 -8.35397,0.1085 -4.77369,2.82081 -7.16054,-2.71231 -13.01916,-4.66521 -8.24547,0.21699 -8.78794,7.26903 0.65096,4.88218 -6.50958,-3.90574 -2.38684,7.48601 1.95287,1.30192 -1.84438,5.20767 5.75013,4.5567 3.90575,-0.21699 4.66519,4.55672 0.217,3.47177 3.0378,1.19343 -1.51891,4.01423 -4.99068,1.08493 -3.90574,7.05205 6.50958,6.61808 0.43397,4.5567 7.91999,8.13697 -2.71233,2.82083 -0.65095,1.73588 -2.60384,-0.54246 -4.6652,-4.12273 -1.62739,-0.217 -3.90575,-1.62739 -2.27835,-2.82081 -5.53314,-1.41042 -3.1463,1.08494 -1.30192,-1.30192 -8.24547,-3.36328 -8.35395,-1.08494 -4.99068,-1.19342 -0.43398,0.86794 -8.24547,-5.85862 -6.72657,-2.60383 -5.53314,-4.01424 3.90575,-1.08493 3.47178,-5.64164 -3.58027,-2.71233 7.48602,-2.82081 -0.43398,-1.5189 -4.6652,1.08492 -0.43397,-2.92931 2.38684,-1.95287 5.20768,-0.43398 0.32547,-2.27835 -1.95287,-3.79725 1.4104,-3.47178 -0.43396,-2.06136 -8.35397,-2.16987 -3.1463,0.1085 -3.90575,-3.1463 -3.90574,1.08493 -7.26904,-2.38685 -0.10848,-1.30191 -2.49535,-2.92931 -4.23122,-0.32548 -0.86794,-2.06137 0.97643,-1.4104 -4.12274,-3.79727 -5.31616,0.65096 -1.62739,-0.32548 -1.08493,1.51891 -1.95288,-0.21699 -2.16985,-4.33972 -1.6274,-2.16986 0.86794,-0.65096 4.23123,0.21699 1.73589,-1.41041 -1.84438,-1.73589 -3.68876,-1.19343 v -1.19342 l -2.27835,-1.19341 -4.12274,-4.33973 0.75945,-1.73589 -1.19342,-3.14629 -5.20767,-1.51891 -2.60383,0.75946 -0.97644,-1.6274 -5.75012,-1.62739 -2.27835,-3.90575 -1.08494,-3.1463 -2.71233,-1.41041 1.7359,-2.06136 -2.60384,-6.07562 2.82082,-3.68876 -0.97644,-1.08492 4.88218,-3.58028 -5.85862,-3.0378 8.67945,-8.02849 3.68876,-3.68876 0.97644,-3.14629 -8.02849,-4.23124 0.97644,-4.12273 -5.31616,-4.5567 1.84439,-5.20766 -7.05205,-6.83507 3.14629,-4.55671 -7.91999,-4.01424 -0.43396,-4.12273 3.47177,-0.54247 6.94355,-2.27835 4.01424,-2.06136 8.35397,3.47177 12.69368,1.41041 19.20326,6.72656 4.44821,2.82083 1.6274,4.01424 -4.01424,3.14629 -7.05205,1.6274 -21.91559,-4.55671 -3.14629,0.75946 8.78793,4.4482 1.08493,2.82083 2.06137,6.29259 6.61807,1.84438 4.12273,1.62739 -0.21698,-3.0378 -3.68876,-2.60383 2.27835,-2.38685 12.58519,3.90576 3.47178,-1.51891 -4.6652,-4.55671 8.78793,-5.85862 4.44822,0.32548 4.99067,2.06136 1.19343,-4.12273 -5.09918,-3.58027 0.86795,-3.58026 -4.6652,-3.68877 13.34464,1.95287 3.90575,3.25479 -5.53315,0.75946 1.30192,3.36328 4.44822,2.06136 6.50957,-1.30191 -0.43397,-3.79725 8.35396,-2.92931 13.45314,-4.99068 3.47178,0.21698 -2.71233,3.58027 5.85862,0.65096 2.27835,-2.06136 8.35397,-0.1085 5.42465,-2.49535 6.94356,3.58028 3.03779,-3.90575 -6.50958,-3.36328 1.30192,-1.95287 14.10409,1.73588 7.16055,1.84438 20.1797,6.72657 1.19342,-3.0378 -6.4011,-3.1463 -0.86794,-1.19342 -5.75013,-0.65096 -0.21698,-2.71233 -5.09917,-4.5567 -1.19343,-1.844381 4.6652,-5.09918 -0.65095,-5.207662 2.38684,-1.084927 12.3682,1.518904 3.14631,3.146295 -0.97644,4.556701 4.01424,1.844389 4.12273,4.014231 4.12274,8.02849 7.26903,3.58027 0.54246,4.01424 -3.79726,8.46245 5.75014,0.86794 0.54246,-2.16985 4.12274,-1.5189 -0.54246,-2.92931 2.06136,-2.92932 -4.77369,-3.36328 -0.43398,-3.90575 -5.20766,-0.43397 -3.1463,-3.25479 -0.43397,-5.85863 -8.89642,-4.665193 5.09916,-3.797255 -4.01424,-4.014238 2.06137,-0.108497 4.5567,3.037808 2.27836,5.533142 5.42465,1.084932 -4.99068,-4.12274 5.53314,-2.27835 8.78794,-0.325481 10.41533,3.254792 -7.48602,-4.665199 -5.31615,-5.967119 6.40109,-1.084927 10.30683,0.216983 8.46246,-0.759447 -6.07562,-2.820824 1.41042,-3.580272 4.5567,-0.216986 5.31616,-2.603833 10.08985,-0.759451 -0.21699,-1.518901 10.08985,-0.433973 4.6652,1.193424 5.85862,-2.820819 7.59451,0.108493 -1.62739,-2.386846 0.97643,-2.16986 6.72657,-2.16986 9.00493,1.735887 -3.79726,1.301916 10.19834,0.759451 4.44822,2.603833 2.06137,-1.301916 11.82573,0.108493 12.58519,2.603832 5.96712,1.952875 2.71232,2.820818 -2.60383,1.627395 -7.16054,3.037803 -1.19342,1.62739 6.07561,0.759457 7.81149,1.410418 2.60384,-1.084927 6.2926,3.580261 0.21698,-1.410407 5.64164,-0.867944 14.75504,0.867944 4.12274,2.603831 18.87778,0.867944 -5.20766,-4.231222 10.30684,0.97643 6.61807,-0.108486 10.7408,2.929311 6.50959,3.580272 0.43397,2.386837 10.95779,4.556712 9.76437,2.278348 -3.25479,-5.967116 10.19834,2.495344 5.42466,-1.518904 10.63232,1.735888 1.08492,-1.518904 8.24547,0.759457 -10.19834,-5.316159 2.27835,-2.386848 43.83118,3.688769 8.57095,3.363277 17.68436,4.339716 16.05696,-1.08492 10.08986,0.97644 7.16053,2.386831 5.53314,4.23123 7.91999,1.6274 4.23124,-1.19342 7.59451,-0.1085 10.08985,1.08493 7.48601,-0.65096 15.5145,5.20767 2.71233,-1.84438 -9.2219,-3.68876 -1.95288,-2.60384 16.59944,1.6274 8.67943,-0.32548 17.1419,2.71233 10.30683,2.60383 36.01969,23.97695 -2.16986,2.71233 -6.72657,-0.43398 8.89643,3.25479 9.87286,5.09918 4.5567,1.62739 4.12274,2.60383 1.08493,1.6274 -10.8493,-1.30192 -7.16054,4.6652 -3.25479,0.75946 -1.73589,4.44821 -2.16986,3.90574 1.84438,2.92931 -12.47669,-4.4482 -6.61808,4.99068 -5.09917,-2.38685 -1.5189,2.82081 -7.59451,-0.97644 3.36328,4.23124 1.19342,6.2926 3.1463,2.60383 7.37752,1.4104 9.87287,9.4389 -4.44821,0.32548 3.68876,5.42464 5.09917,2.82082 -5.42465,3.36329 5.85862,7.59451 -6.1841,1.6274 4.88219,6.72656 -1.84439,6.29259 -6.1841,-4.6652 -11.39176,-9.65587 -17.57587,-14.75506 -7.05205,-9.00491 0.1085,-3.90576 -3.03781,-3.03779 6.18411,-1.41042 -0.21699,-8.13697 0.75945,-6.50959 2.71233,-5.09916 -7.16055,-8.89643 -5.09916,0.54246 3.47177,5.20766 -3.90575,6.94356 -13.34463,-7.8115 -9.87288,2.16986 v 10.63232 l 8.35397,3.90574 -9.22191,1.7359 -6.94355,0.65095 -4.6652,-4.6652 -8.67944,-0.97643 -2.71232,3.1463 -16.38246,-1.08493 -14.32107,1.84437 -3.79726,12.69369 -5.42464,15.406 8.89642,0.86796 6.1841,4.12272 6.2926,1.41042 0.43397,-3.25479 6.07561,0.43396 13.8871,7.26903 5.09918,5.64164 1.5189,6.72657 5.96711,8.02848 5.75014,10.74081 -1.08493,9.87287 1.41041,4.6652 -2.16987,8.02848 -2.27835,7.91999 -0.97644,4.01424 -4.99068,4.01424 -3.36328,0.1085 -5.64163,-3.36329 -4.44822,5.09918 z"
     
     />
  <path
     className="RU"
     d="m 488.37307,58.860708 -19.63724,1.952874 -1.4104,-6.618074 2.38683,-0.542465 3.36329,0.32548 13.67012,2.820817 z"
     
     />
  <path
     className="RU"
     d="m 268.8917,48.011406 -4.6652,0.542466 -3.14629,0.433972 v 0.759451 l -3.90575,0.759451 -4.88219,-1.08493 1.19343,-1.518902 -8.46247,-0.108494 6.83507,-0.867944 h 5.64164 l 1.62739,1.193423 1.41041,-1.08493 3.0378,-0.759451 6.2926,0.976437 z"
     
     />
  <path
     className="RU"
     d="m 464.5046,55.931396 -7.70299,0.650959 -12.69369,-1.41041 -8.78793,-1.844381 -7.16055,-3.471777 -6.40108,-0.867943 5.85862,-3.146298 6.72657,-0.976437 10.41533,2.16986 14.86354,4.556707 z"
     
     />
  <path
     d="m 376.62527,395.40604 0.32548,0.10849 0.21698,-0.10849 0.43398,0.75945 -0.1085,0.21698 0.1085,0.97644 v 0.75945 l -0.217,0.43398 -0.10848,-0.43398 -0.65096,-0.86794 0.10848,-0.43397 -0.21698,-0.75946 v -0.43396 z"
     id="BH"
     name="Bahrain"
     />
  <path
     className="CY"
     d="m 272.58047,333.99899 0.10849,0.21699 0.32548,0.43398 -0.43397,-0.1085 h -0.32548 l -0.43398,0.21698 -0.32548,-0.32548 v -0.32547 l 0.32548,-0.1085 0.21699,0.1085 z"
     
     />
  <path
     className="CY"
     d="m 270.73609,334.54146 v 0.1085 l -0.21699,0.21698 -0.1085,0.65096 -0.10849,0.21698 h -0.32548 l -0.21699,0.21699 -0.54246,0.21699 -0.21698,0.10849 -0.65096,0.32548 -0.43398,-0.1085 -0.54246,0.1085 -0.32548,0.43397 -0.21699,-0.32548 -0.32548,0.10849 h -0.21698 l -0.32548,-0.32548 -0.43397,0.32548 h -0.54247 l -0.54246,-0.21698 -0.54247,-0.1085 -0.43396,-0.32547 -0.32548,-0.65096 -0.32548,-0.32548 -0.21699,-0.75946 -0.21699,-0.32547 0.10849,-0.32548 0.54247,0.32548 0.43398,-0.1085 0.21698,-0.32548 0.10849,-0.32548 0.32548,-0.10848 0.21699,0.10848 0.21698,-0.21698 h 0.21699 l 0.10849,0.43397 0.54247,0.21699 0.10849,0.21698 h 0.65095 l 0.65096,-0.54246 0.43398,0.10849 0.32548,-0.21699 0.32547,0.1085 0.43398,0.21698 0.21698,-0.32548 h 0.32548 l 0.32548,0.43398 v 0.65095 l 0.32548,-0.21698 0.32548,0.21698 0.10849,-0.10848 z"
     
     />
  <path
     className="FM"
     d="m 1076.7307,541.22066 -0.217,0.32547 -0.5425,-0.10849 v -0.21698 l 0.5425,-0.43398 z"
     
     />
  <path
     className="FM"
     d="m 1046.1356,529.72039 h 0.434 l 0.3255,0.21699 0.1085,0.43396 -0.217,0.1085 0.1085,0.21698 -0.1085,0.217 h -0.651 l -0.217,-0.217 v -0.21698 l -0.217,-0.32548 v -0.32548 z"
     
     />
  <path
     className="FM"
     d="m 921.69417,511.71055 0.10848,0.32548 h -0.32548 l -0.32548,0.54246 -0.10848,-0.10848 0.32548,-0.86796 0.43396,-0.10848 z"
     
     />
  <path
     d="m 958.90727,484.5873 -0.1085,0.43397 v 0.65096 l -0.10849,0.32548 h -0.32547 l -0.217,-0.32548 -0.10848,-0.54246 v -0.54247 l 0.65095,-0.54247 0.10849,-0.21699 0.1085,-0.54246 0.21698,-0.1085 0.1085,0.217 0.43397,0.10848 -0.21699,0.54247 z"
     id="GU"
     name="Guam"
     />
  <path
     d="m 527.21356,548.92365 v 0.217 l -0.21698,-0.1085 0.21698,-0.21698 z"
     id="MV"
     name="Maldives"
     />
  <path
     d="m 1124.9017,528.52697 1.0848,0.43397 h -0.217 z"
     id="MH"
     name="Marshall Islands"
     />
  <path
     className="MP"
     d="m 960.75164,479.81361 -0.10848,0.10848 -0.21699,-0.10848 -0.10849,-0.21699 0.54246,-0.21699 0.21698,0.21699 z"
     
     />
  <path
     className="MP"
     d="m 962.37905,474.28046 h -0.21699 l -0.32548,-0.65096 0.10849,-0.32548 h 0.32548 v 0.32548 l 0.21699,0.21699 z"
     
     />
  <path
     className="MP"
     d="m 962.92151,472.54458 -0.21698,0.21698 0.10848,0.32548 h -0.43396 v -0.75946 l 0.10849,-0.21698 0.43397,-0.21698 -0.1085,0.54246 z"
     
     />
  <path
     className="MP"
     d="m 960.86014,464.40759 h -0.32548 l -0.10849,-0.21698 h 0.43397 z"
     
     />
  <path
     className="MP"
     d="m 958.79877,452.47336 -0.10849,-0.21698 v -0.54246 l 0.32548,-0.1085 0.21699,0.32548 z"
     
     />
  <path
     className="MP"
     d="m 957.49686,447.80817 -0.43397,-0.1085 v -0.32548 l 0.21698,-0.10849 0.21699,0.21699 z"
     
     />
  <path
     d="m 901.29748,525.38068 -0.21699,0.43396 0.1085,0.1085 -0.21699,0.65095 0.10849,0.21699 -0.54246,0.21699 -0.21699,-0.75945 0.32548,-0.21699 -0.21699,-0.21699 0.32548,-0.65096 0.32548,-0.10848 z"
     id="PW"
     name="Palau"
     />
  <path
     d="m 1173.832,637.67094 v -0.21699 h 0.1085 v 0.1085 z"
     id="TV"
     name="Tuvalu"
     />
  <circle
     cx="997.9"
     cy="189.1"
     id="0" />
  <circle
     cx="673.5"
     cy="724.1"
     id="1" />
  <circle
     cx="1798.2"
     cy="719.3"
     id="2" />
</svg>
