<?xml version="1.0" encoding="UTF-8" standalone="no"?>
<!--
*************Map created by Simplemaps.com********************		
*************Attribution is highly appreciated!***************
*************http://simplemaps.com****************************

The MIT License (MIT)

Copyright (c) 2020 Pareto Softare, LLC DBA Simplemaps.com

Permission is hereby granted, free of charge, to any person obtaining a copy
of this software and associated documentation files (the "Software"), to deal
in the Software without restriction, including without limitation the rights
to use, copy, modify, merge, publish, distribute, sublicense, and/or sell
copies of the Software, and to permit persons to whom the Software is
furnished to do so, subject to the following conditions:

The above copyright notice and this permission notice shall be included in
all copies or substantial portions of the Software.

THE SOFTWARE IS PROVIDED "AS IS", WITHOUT WARRANTY OF ANY KIND, EXPRESS OR
IMPLIED, INCLUDING BUT NOT LIMITED TO THE WARRANTIES OF MERCHANTABILITY,
FITNESS FOR A PARTICULAR PURPOSE AND NONINFRINGEMENT. IN NO EVENT SHALL THE
AUTHORS OR COPYRIGHT HOLDERS BE LIABLE FOR ANY CLAIM, DAMAGES OR OTHER
LIABILITY, WHETHER IN AN ACTION OF CONTRACT, TORT OR OTHERWISE, ARISING FROM,
OUT OF OR IN CONNECTION WITH THE SOFTWARE OR THE USE OR OTHER DEALINGS IN
THE SOFTWARE.

-->

<svg
   baseprofile="tiny"
   fill="#ececec"
   height="684"
   stroke="black"
   stroke-linecap="round"
   stroke-linejoin="round"
   stroke-width=".2"
   version="1.2"
   viewbox="0 0 1000 684"
   width="1000"
   id="svg775"
   sodipodi:docname="north-america.svg"
   inkscape:version="1.1.1 (3bf5ae0d25, 2021-09-20)"
   xmlns:inkscape="http://www.inkscape.org/namespaces/inkscape"
   xmlns:sodipodi="http://sodipodi.sourceforge.net/DTD/sodipodi-0.dtd"
   xmlns="http://www.w3.org/2000/svg"
   xmlns:svg="http://www.w3.org/2000/svg">
  <defs
     id="defs779" />
  <sodipodi:namedview
     id="namedview777"
     pagecolor="#ffffff"
     bordercolor="#666666"
     borderopacity="1.0"
     inkscape:pageshadow="2"
     inkscape:pageopacity="0.0"
     inkscape:pagecheckerboard="0"
     showgrid="false"
     inkscape:zoom="0.6325"
     inkscape:cx="806.32411"
     inkscape:cy="473.51779"
     inkscape:window-width="1920"
     inkscape:window-height="1001"
     inkscape:window-x="381"
     inkscape:window-y="1341"
     inkscape:window-maximized="1"
     inkscape:current-layer="svg775" />
  <path
     d="m 430.16544,548.53202 h -2.05761 l 1.57346,-8.71455 0.84725,-6.1728 0.12103,-1.21035 0.84724,-0.36311 1.08932,0.96829 3.02589,-4.72039 1.33139,-0.12103 -0.12103,1.21036 h 1.21035 l -0.36311,2.17865 -1.57346,3.26793 0.48414,1.21035 -1.08931,2.78382 0.3631,0.72622 -1.21035,3.99415 -1.57347,2.0576 -1.33139,0.24207 z"
     id="BZ"
     name="Belize"
     style="stroke-width:0.24207" />
  <path
     className="CA"
     d="m 645.72931,311.06072 4.11521,1.08933 5.68867,-0.24206 -3.99417,3.1469 -2.42069,0.48415 -6.65695,-3.26795 -0.72622,-2.54175 3.02589,-2.29968 z"
     id="path37"
     style="stroke-width:0.24207" />
  <path
     className="CA"
     d="m 663.15841,291.69507 -2.90485,0.12104 -7.02005,-2.29967 -4.23623,-3.63106 2.29967,-0.60518 7.14108,1.93656 5.08349,3.14694 z"
     id="path39"
     style="stroke-width:0.24207" />
  <path
     className="CA"
     d="m 290.49067,296.17338 -3.75209,1.08933 -7.62522,-3.389 v -2.66277 l -3.51002,-2.66278 0.3631,-2.17864 -5.20452,-1.33139 0.72622,-4.1152 1.81552,-1.69449 4.96245,1.57345 2.90485,1.21037 4.96244,0.7262 0.24207,2.66278 0.48414,3.51003 3.87314,3.14691 z"
     id="path41"
     style="stroke-width:0.24207" />
  <path
     className="CA"
     d="m 700.92143,279.83361 -6.05177,6.53591 4.72038,-2.54174 3.51003,1.69449 -2.90486,2.54176 4.59935,2.05759 3.389,-1.81553 5.20451,2.29967 -3.389,5.56762 4.59936,-1.33138 -0.36311,3.99416 0.60519,4.72038 -4.35728,6.77798 -2.90486,0.24207 -3.51001,-1.45242 3.02587,-6.17282 -1.45243,-0.96827 -8.83557,6.53591 -3.63106,-0.24207 5.32555,-3.63107 -5.32555,-1.81553 -6.65693,0.48414 -11.6194,-0.24205 -0.24208,-2.17865 4.59934,-2.78382 -2.0576,-1.93656 6.53591,-4.59934 9.92492,-11.98249 5.08347,-4.23624 6.05176,-2.54174 2.54174,0.24207 -1.81552,2.05759 z"
     id="path43"
     style="stroke-width:0.24207" />
  <path
     className="CA"
     d="m 265.19428,253.93206 1.81554,0.96827 6.05177,-0.60517 -8.71454,8.35143 0.3631,6.05177 h -2.29967 l -0.84724,-3.389 0.60517,-3.51 -0.96829,-2.29967 1.57347,-3.26797 z"
     id="path45"
     style="stroke-width:0.24207" />
  <path
     className="CA"
     d="m 608.20838,196.44028 -4.35728,3.63105 -2.05759,-0.60516 -0.12103,-2.05761 0.48413,-0.48414 3.38899,-2.05759 2.0576,0.12103 z"
     id="path47"
     style="stroke-width:0.24207" />
  <path
     className="CA"
     d="m 596.46795,192.56716 -8.71454,3.87312 -3.63106,-0.24206 v -1.81554 l 6.05177,-3.26795 7.26211,0.12104 z"
     id="path49"
     style="stroke-width:0.24207" />
  <path
     className="CA"
     d="m 592.71586,172.23323 -1.08932,3.02587 3.26797,-1.08931 1.81553,1.81552 4.23623,2.42073 4.59933,2.05759 -1.6945,3.26794 4.23625,-0.48413 2.29967,2.29967 -6.05177,2.17863 -7.14108,-1.6945 -0.96829,-3.1469 -7.62522,3.75209 -9.9249,3.51002 0.84725,-3.99417 -7.62523,0.60517 6.89903,-3.38898 4.35726,-5.44659 6.1728,-6.17281 z"
     id="path51"
     style="stroke-width:0.24207" />
  <path
     className="CA"
     d="m 647.06072,162.18729 -5.93074,0.3631 0.84725,-3.26795 4.59934,-3.7521 5.20454,-0.84724 2.7838,1.81552 -1.81554,2.78382 -1.08931,0.96828 z"
     id="path53"
     style="stroke-width:0.24207" />
  <path
     className="CA"
     d="m 556.8894,149.2365 -4.96245,2.29968 -5.08347,-1.93657 -4.72038,0.60519 -4.1152,-2.90486 6.05177,-2.05759 5.93073,-2.78381 3.63105,1.81552 1.93657,1.21036 0.48414,1.21035 z"
     id="path55"
     style="stroke-width:0.24207" />
  <path
     className="CA"
     d="m 621.03813,321.83286 -2.66278,-4.35727 3.51002,-10.28799 -1.93657,-2.17864 -4.4783,1.21035 -1.33138,-1.93656 -6.65695,5.68866 -3.87312,5.93073 -3.38901,3.51002 -3.02587,1.21037 -2.05761,0.3631 -1.33139,1.81552 h -11.25628 l -9.44076,0.12104 -3.26796,1.33139 -8.23039,5.32555 v -0.12102 l -1.0893,-0.48417 -2.42072,1.08934 -2.29966,1.57345 -2.17865,-1.33138 -5.68866,0.96826 -4.72038,1.08933 -2.29967,0.96828 -2.7838,2.54174 2.17863,0.84726 2.05759,-0.48414 h 0.36311 l -0.36311,2.29968 -5.8097,0.84723 -3.38897,0.96827 -2.0576,1.21037 -3.14692,-0.7262 -1.93657,0.3631 -3.51001,2.17862 -5.56764,2.42071 -3.26795,-0.48413 2.42072,-2.66278 4.4783,-4.23624 4.96244,-2.54175 1.33139,-2.17864 1.08932,-3.63104 4.59933,-4.23625 1.08932,-4.8414 1.33139,4.72039 4.59936,1.0893 2.90484,-2.54174 -1.6945,-5.80971 -1.08932,-2.4207 -4.84141,-1.45241 -4.59935,-0.84726 h -4.72037 l -4.1152,-0.96828 -0.48414,-1.6945 -1.6945,1.08933 -1.45242,-0.24206 2.29967,-2.54177 -2.17862,-0.96827 2.29967,-2.90483 -1.45243,-2.17866 2.05759,-2.17863 -6.29383,-1.08933 -0.12104,-4.35725 -0.96828,-0.96829 -3.99416,-0.24206 -4.96246,-1.45243 -1.81552,0.96827 -2.17863,1.81554 -3.99417,1.21035 -3.75211,3.02587 -6.53591,-2.05759 -5.32555,0.96829 -4.72036,-2.29968 -5.56763,-1.21036 -3.99418,-0.48412 -1.21035,-1.21037 1.08933,-4.11521 h -2.05761 l -1.57343,2.90487 h -12.34563 -20.57601 -20.33392 -18.03427 -17.91321 -17.7922 -18.27635 -5.80968 -17.79219 -17.06598 -0.84725 l -6.53592,-7.38316 -1.93655,-3.26796 -8.47247,-3.14691 1.57345,-6.65696 4.35728,-4.4783 -4.96245,-3.26795 3.7521,-5.93073 -2.54174,-5.32554 3.02588,-3.87313 6.17279,-3.51004 3.87315,-4.59934 -5.56763,-4.59933 1.69448,-8.35145 1.33139,-5.08349 -1.93657,-3.26795 -0.96827,-2.90483 0.72621,-3.7521 -7.86731,2.29966 -9.19866,3.99417 -0.36312,-4.59934 -0.60519,-3.14692 -3.38897,-1.93657 -5.08348,-0.24206 43.08857,-39.57855 29.77469,-24.6912 7.26211,1.57345 3.99417,3.14693 4.47831,0.60517 7.62522,-2.66277 8.47248,-2.0576 6.41488,0.7262 10.77213,-2.7838 9.9249,-1.57347 0.24207,2.66278 5.44658,-1.57347 4.72038,-3.02588 2.54174,0.72621 1.6945,5.8097 11.49835,-4.47831 -4.72038,4.96245 7.26212,-1.08931 3.87314,-1.81552 5.56761,0.3631 4.72038,2.66276 9.07765,2.42071 5.68866,1.08932 5.32555,-0.3631 3.51004,3.38899 -10.28802,3.26796 7.74627,1.33138 14.40321,-0.72623 5.32554,-1.21033 1.6945,3.99416 8.59351,-3.26796 -2.54175,-2.90484 5.4466,-2.17863 6.29383,-0.36311 4.72038,-0.60518 2.54174,1.57346 1.81554,3.51001 6.05176,-0.48413 6.41487,3.02589 8.71454,-1.08934 7.26212,0.12105 2.90485,-4.11521 5.4466,-1.08931 5.93071,2.17865 -5.20451,6.29382 7.50418,-5.32555 3.87314,0.24206 7.74626,-6.65693 -1.93656,-3.99416 -3.51003,-2.66279 6.65693,-7.14107 9.92491,-4.59934 5.44659,1.0893 2.42071,2.78382 0.48413,7.26212 -7.02006,3.1469 8.10938,1.33141 -5.32554,6.65694 10.77214,-5.08348 2.66276,4.23624 -5.20453,4.8414 1.57349,4.47832 8.83557,-4.72038 7.86729,-5.8097 5.68866,-7.14108 6.65695,0.48413 6.53589,0.9683 4.35729,3.26795 -2.05761,3.26795 -6.17279,3.51003 1.08932,3.51002 -2.90486,3.26794 -13.19285,4.72038 -7.86729,1.08933 -3.87314,-2.05761 -3.99415,3.389 -8.95664,5.68865 -3.63104,3.02589 -9.31971,4.59935 -7.86731,0.48413 -6.1728,2.90484 -3.51,4.59934 -6.89904,0.84726 -10.53007,5.68865 -11.37732,7.8673 -6.05176,5.56763 -5.93074,8.35144 7.26213,1.21034 -1.81553,6.65696 -0.96829,5.5676 8.83559,-1.45241 8.47246,3.14691 3.99418,2.78383 2.05759,3.38898 5.93073,2.05761 4.35729,3.02587 9.19866,0.48413 5.8097,0.72622 -4.35727,6.29385 -2.05761,7.38315 0.12105,8.35144 5.32555,7.14108 5.68866,-2.42071 6.77797,-7.74626 2.78383,-11.6194 -2.05761,-3.87312 10.89319,-3.51003 9.07765,-5.08348 5.80969,-5.08349 2.0576,-4.84141 -0.48415,-6.17279 -3.87314,-5.44659 10.77216,-7.5042 1.21035,-6.41487 4.72037,-10.89317 4.59933,-1.69451 8.10937,1.93656 5.08348,0.72624 5.44661,-1.93658 3.75209,2.42071 4.35726,4.1152 0.24209,2.66278 9.31972,0.60516 -3.14693,5.93075 -2.78381,8.95661 4.59934,1.21036 1.93656,4.23622 9.92491,-3.99415 9.07764,-7.98834 5.08348,-3.26795 1.3314,6.41487 3.14691,9.07765 2.42072,8.71455 -4.1152,4.59934 5.80969,4.1152 3.51002,4.1152 8.35143,1.93655 2.90486,2.29966 v 6.29386 l 4.1152,0.96828 1.33138,2.7838 -2.42071,8.35145 -5.20452,2.78379 -5.08348,2.66279 -10.65109,2.6628 -9.56181,6.05175 -10.40903,1.33138 -12.22457,-1.69449 h -8.83558 l -6.41487,0.48413 -6.89901,5.4466 -8.95661,3.38899 -12.22458,9.9249 -9.56178,7.02004 5.68866,-1.21034 13.19284,-10.04595 14.88736,-6.29382 9.19866,-0.72621 3.99418,3.7521 -7.38315,5.08347 -0.72622,8.10937 0.12103,5.80969 6.77799,3.7521 10.40903,-1.08933 8.71454,-8.59351 -1.21034,5.56763 3.02587,2.78382 -8.95661,4.96245 -15.00838,4.59934 -7.02004,3.02589 -8.71454,5.56762 -4.47831,-0.60518 1.81553,-6.41487 12.58766,-6.41486 -9.80386,0.24206 z"
     id="path57"
     style="stroke-width:0.24207" />
  <path
     className="CA"
     d="m 492.13552,123.57702 -5.68867,2.90485 12.7087,-1.81552 3.14694,3.1469 8.83557,-3.26794 2.17864,2.0576 -2.66279,6.1728 5.20453,-2.54175 3.38898,-6.41488 5.20452,-0.96826 3.63105,0.96826 2.6628,2.54176 -3.26796,6.17279 -2.90485,4.47832 5.08348,3.14691 6.05177,3.14691 -3.14693,2.78382 -8.5935,0.60518 0.96828,2.42069 -3.87312,2.42072 -8.10939,-0.96828 -6.899,-1.81554 -6.17279,0.3631 -11.49836,2.29967 -13.67698,0.9683 -9.56179,0.60517 0.36311,-3.14692 -4.96247,-1.69448 -5.2045,0.72621 -0.72622,-5.20453 3.99416,-0.7262 8.83559,-1.08932 6.65693,0.3631 7.50418,-1.21036 -7.8673,-1.45241 -11.01421,0.48414 -6.89901,-0.12105 v -2.29967 l 14.16113,-2.66277 -7.62522,0.12104 -6.53591,-1.69449 9.44076,-4.72038 6.29386,-2.54175 17.18699,-3.75209 z"
     id="path59"
     style="stroke-width:0.24207" />
  <path
     className="CA"
     d="m 539.94447,121.76148 -8.47248,4.11522 -2.78381,-4.35728 2.54175,-0.96827 6.65695,-0.24208 z"
     id="path61"
     style="stroke-width:0.24207" />
  <path
     className="CA"
     d="m 671.38883,123.69805 -0.84727,1.69449 -4.96244,-0.12103 -4.96244,-0.12103 -5.93074,0.84726 -1.08932,-0.48416 -2.54172,-3.26794 2.05758,-2.17865 2.66278,-0.48413 10.16696,0.72621 z"
     id="path63"
     style="stroke-width:0.24207" />
  <path
     className="CA"
     d="m 623.21676,123.33496 0.36311,3.87311 8.71454,-4.96243 14.16112,-2.54176 2.78382,6.41488 -3.87312,4.1152 10.89317,-1.81552 6.41487,-2.54174 8.2304,3.14691 4.47832,3.02589 -1.33139,2.78381 9.92488,-1.45242 2.29968,4.1152 10.16696,2.54174 2.66279,2.54174 1.0893,6.17279 -11.01421,3.02588 9.31972,4.35727 7.14108,1.45244 3.99417,6.05177 7.86731,0.48414 -3.99418,4.72036 -13.19285,7.8673 -4.84141,-2.90484 -4.59933,-6.53591 -7.1411,0.84726 -2.78381,3.99415 3.26797,3.87313 5.44657,3.14693 1.21037,1.81553 -0.12104,6.89901 -4.35728,4.96244 -5.68866,-1.93657 -10.40903,-5.44659 4.35726,5.93073 3.389,4.23623 -0.36311,2.42074 -13.19285,-2.78384 -9.19869,-4.11519 -4.59934,-3.26795 2.90485,-2.05761 -5.80969,-3.51002 -5.68866,-3.26796 -1.08933,1.93658 -15.85562,1.08932 -2.90485,-2.29968 6.53592,-5.08348 9.80387,-0.12103 11.25626,-0.84726 -0.24205,-2.42071 3.75209,-3.38898 10.65109,-6.5359 0.48415,-3.02589 -0.60517,-2.17865 -5.68865,-3.26794 -8.59351,-2.17864 4.23622,-1.69449 -2.42069,-4.1152 -4.1152,-0.36311 -2.29967,-2.17864 -3.99419,1.93657 -9.56177,0.84725 -16.94495,-1.45243 -8.95662,-1.93656 -7.14109,-0.96828 -2.29967,-2.29967 7.62524,-2.90486 h -6.89902 l 3.99416,-6.41487 8.59351,-5.56762 7.26211,-2.54175 13.55597,-1.69449 z"
     id="path65"
     style="stroke-width:0.24207" />
  <path
     className="CA"
     d="m 562.21497,119.09871 4.35728,1.33139 9.19866,-0.84724 -0.60517,1.81552 -7.38316,3.02589 4.59934,2.66277 -6.29383,5.68867 -10.16697,2.4207 -4.1152,-0.48413 -1.0893,-2.42071 -7.1411,-4.84142 2.0576,-2.05761 8.95662,0.72622 -1.08932,-3.99416 z"
     id="path67"
     style="stroke-width:0.24207" />
  <path
     className="CA"
     d="m 589.56894,125.75565 -9.44074,4.72039 -5.32557,-0.24208 2.17865,-5.56761 3.14692,-3.02589 5.08347,-2.66279 6.29384,-1.69449 9.56179,0.24207 7.50418,1.45242 -12.22454,5.56764 z"
     id="path69"
     style="stroke-width:0.24207" />
  <path
     className="CA"
     d="m 449.41004,134.4702 -16.33977,3.14691 0.72622,-2.7838 -7.26212,-3.38899 5.32555,-2.66278 9.07764,-4.59933 9.1987,-4.11522 0.48413,-3.75209 16.94496,-0.96828 5.08348,1.33138 11.49835,0.36311 2.29967,1.69449 1.93657,2.66278 -7.8673,1.57347 -16.8239,4.35727 -11.13526,4.47829 z"
     id="path71"
     style="stroke-width:0.24207" />
  <path
     className="CA"
     d="m 600.94627,112.19971 -4.96246,2.29967 -6.29384,-0.48415 -3.87311,-1.57345 5.44658,-2.66278 8.35144,-1.69449 1.6945,2.17862 z"
     id="path73"
     style="stroke-width:0.24207" />
  <path
     className="CA"
     d="m 590.29515,101.66964 0.24208,2.7838 -3.38899,3.02588 -7.02004,4.59935 -8.35146,0.60517 -3.87311,-0.96827 4.1152,-3.51004 -7.98834,0.36311 5.20453,-4.59933 4.59933,0.24206 9.31972,-2.05761 5.93072,0.36312 z"
     id="path75"
     style="stroke-width:0.24207" />
  <path
     className="CA"
     d="m 542.60725,104.81655 -0.84725,2.05759 5.32555,-0.96828 4.35727,0.24207 -2.78381,3.02588 -6.1728,2.78382 -16.82391,0.96828 -14.88735,2.66278 -7.26213,0.12103 1.81554,-1.93656 12.95078,-2.78382 -21.66532,0.72623 -5.08347,-1.08933 14.16112,-5.80969 6.53589,-1.6945 10.04595,2.0576 3.51,3.51003 7.38318,0.48413 0.84723,-5.68865 7.02006,-2.17863 3.7521,0.60517 z"
     id="path77"
     style="stroke-width:0.24207" />
  <path
     className="CA"
     d="m 610.02392,99.490992 2.78381,1.936568 h 8.9566 l 1.69449,1.93657 -3.38899,2.17862 3.7521,1.33139 1.45244,1.45243 5.93071,0.24207 6.1728,0.48416 8.59352,-1.21037 9.80386,-0.60518 7.02005,0.48415 2.78381,2.29967 -1.21035,2.42071 -4.35727,1.6945 -8.10936,1.33138 -5.20452,-0.84725 -14.28218,0.96828 -9.68281,0.12103 -6.77799,-0.72621 -10.40904,-1.93655 1.93657,-3.38901 2.54175,-2.90484 -1.6945,-2.66278 -8.47248,-0.7262 -3.1469,-1.81554 4.59934,-2.420701 z"
     id="path79"
     style="stroke-width:0.24207" />
  <path
     className="CA"
     d="m 518.40018,96.344071 -7.02005,4.478309 -6.41487,2.0576 -4.59934,0.24207 -11.9825,2.54175 -8.59352,0.96828 -4.35727,-1.33139 14.16113,-4.47831 14.76632,-3.752097 6.65695,0.121041 z"
     id="path81"
     style="stroke-width:0.24207" />
  <path
     className="CA"
     d="m 616.68084,97.070283 -2.17862,0.121041 -7.98833,-0.363107 0.84726,-1.573455 8.71452,0.121029 1.93656,0.96828 z"
     id="path83"
     style="stroke-width:0.24207" />
  <path
     className="CA"
     d="m 545.51208,95.980965 -10.6511,1.694493 -3.99416,-1.815522 6.17279,-1.815533 7.26214,-0.605175 4.96243,0.847253 z"
     id="path85"
     style="stroke-width:0.24207" />
  <path
     className="CA"
     d="m 554.95285,90.897492 -6.89903,1.08931 h -7.26211 l 1.21035,-0.847243 6.89902,-1.573467 2.0576,0.242079 z"
     id="path87"
     style="stroke-width:0.24207" />
  <path
     className="CA"
     d="m 611.59735,93.923375 -7.9883,1.210347 -1.93657,-1.331387 0.72621,-2.057602 2.66278,-2.299669 5.32555,0.242068 2.0576,0.363107 2.78382,1.936563 z"
     id="path89"
     style="stroke-width:0.24207" />
  <path
     className="CA"
     d="m 594.89451,92.470947 -1.3314,2.299669 -6.41487,-0.605172 -4.84143,-1.815537 -9.44074,-0.242067 6.41487,-1.573455 -3.389,-1.331388 2.66277,-2.17864 7.38317,0.726212 9.07766,2.057602 z"
     id="path91"
     style="stroke-width:0.24207" />
  <path
     className="CA"
     d="m 660.3746,85.087794 3.26795,1.815524 -7.86729,1.573467 -12.82974,4.23623 -8.23041,0.363106 -8.23041,-0.726214 -1.93656,-2.299668 2.54176,-1.936562 5.20451,-1.452427 h -7.98833 l -2.42071,-1.815535 0.48415,-2.299668 5.93072,-2.299669 4.96243,-1.573455 4.84144,-0.363107 -0.36312,-1.210359 10.04594,-0.242068 1.93656,2.662775 5.68866,1.089322 5.8097,1.08932 z"
     id="path93"
     style="stroke-width:0.24207" />
  <path
     className="CA"
     d="m 756.23456,68.142841 10.53008,0.363107 8.10937,0.605177 6.29384,1.210353 -1.3314,1.210352 -11.86145,2.057602 -10.89318,0.968276 -4.84141,1.089321 h 9.07764 l -12.70871,3.025894 -8.2304,1.452416 -11.25628,4.236243 -9.80385,0.84724 -3.7521,1.21036 -13.677,0.484136 5.32557,0.726212 -3.99418,0.968283 0.84726,2.783815 -6.05177,1.936561 -8.35145,1.573467 -4.23623,2.178627 -7.98831,1.815532 -0.6052,1.331395 7.8673,-0.242069 -1.3314,1.452419 -15.37146,3.51002 -10.28801,-1.69449 -14.16113,0.96828 -6.05177,-0.72621 -8.2304,-0.36311 2.54174,-2.7838 9.68282,-1.331389 2.42071,-4.115205 3.14692,-0.363108 9.07764,2.420708 -2.05759,-3.631067 -5.93073,-1.089309 6.05176,-2.178641 9.19868,-1.331387 3.38899,-1.936563 -3.63106,-2.057602 1.33139,-2.662775 11.37731,0.121028 2.66279,0.605186 8.83557,-1.936575 -8.83557,-0.605173 -15.25044,0.363108 -5.32557,-1.694495 -0.96828,-2.057602 -3.02588,-1.452428 1.33138,-1.57346 7.26212,-0.968282 5.0835,-0.121037 8.9566,-0.72621 8.23041,-1.815531 4.72038,0.242071 2.90483,1.33139 6.05177,-2.420707 6.29384,-0.726213 7.86729,-0.484141 12.58767,-0.242069 1.57347,0.48414 12.46664,-0.726211 8.47248,0.242071 z"
     id="path95"
     style="stroke-width:0.24207" />
  <path
     d="m 462.60289,587.02125 1.45243,4.23624 2.42071,3.14692 3.02589,3.26795 -2.66279,0.7262 -0.12104,3.14693 1.33139,1.0893 -1.08932,0.96829 0.24209,1.33139 -0.72622,1.57346 -0.36312,1.57346 -3.63106,-1.69449 -1.33137,-1.69451 0.84723,-1.33136 -0.12103,-1.69451 -1.81552,-1.81553 -2.66278,-1.57347 -2.17865,-0.96826 -0.3631,-2.29967 -1.69449,-1.3314 0.24207,2.17863 -1.45242,1.93657 -1.45243,-2.17864 -2.0576,-0.84724 -0.84723,-1.45243 0.12102,-2.4207 1.08931,-2.42072 -1.81552,-1.08931 1.6945,-1.57346 1.08932,-0.96827 4.35726,2.05759 1.57347,-0.96827 2.17862,0.60516 0.96829,1.57346 2.0576,0.60519 z"
     id="CR"
     name="Costa Rica"
     style="stroke-width:0.24207" />
  <path
     d="m 499.15555,495.15543 2.29967,2.78382 6.29386,-0.84724 2.17861,1.81553 5.0835,4.84142 3.87312,3.51002 2.17865,-0.12104 3.87312,1.57346 -0.7262,2.17863 4.8414,0.36312 4.72039,3.1469 -0.9683,1.81554 -4.59934,0.96827 -4.59933,0.36311 -4.47831,-0.60517 -9.80386,0.72622 5.08348,-4.23624 -2.54174,-2.0576 -4.35728,-0.48415 -2.05759,-2.29967 -0.96829,-4.35727 -3.87312,0.24207 -6.05177,-2.05759 -1.81554,-1.6945 -8.5935,-1.21037 -2.17863,-1.4524 2.78382,-1.93659 -6.53592,-0.36308 -5.32555,3.99415 -2.78381,0.12102 -1.21035,1.93659 -3.38898,0.84725 -2.78384,-0.84725 3.87313,-2.29969 1.81553,-2.90483 3.26796,-1.6945 3.63107,-1.45244 5.20451,-0.72618 1.69449,-0.9683 5.68866,0.60518 5.32556,0.12104 z"
     id="CU"
     name="Cuba"
     style="stroke-width:0.24207" />
  <path
     d="m 548.65901,531.82914 0.36311,-2.17864 -1.57347,-2.29967 1.81553,-1.33138 0.84724,-3.02588 -0.12102,-4.1152 0.96828,-1.3314 h 5.20451 l 3.87313,1.93656 1.81554,-0.12102 0.84724,2.78383 3.75209,-0.2421 -0.48413,2.29967 3.02588,0.36311 3.02589,2.78381 -2.78381,3.14692 -3.14693,-1.69449 -3.14693,0.3631 -2.17863,-0.3631 -1.33138,1.45243 -2.66277,0.48413 -0.84726,-1.93656 -2.29967,1.08933 -3.26793,5.32554 -1.57349,-1.21035 z"
     id="DO"
     name="Dominican Republic"
     style="stroke-width:0.24207" />
  <path
     d="m 924.59468,66.327312 24.08604,3.631059 -8.10935,1.694495 -15.73459,0.242069 -22.39155,0.484143 1.6945,0.847246 14.88735,-0.605175 11.74041,1.694493 8.47249,-1.452423 2.90483,1.694489 -5.44658,2.904855 11.13525,-1.936573 20.69707,-1.815523 12.10349,0.968282 2.0576,2.0576 -17.91322,3.510029 -2.66276,1.210348 -13.79805,0.968292 9.8039,0.242069 -5.93076,3.873123 -4.35727,3.510029 -1.45243,6.293832 4.47831,3.873139 -7.14108,0.12104 -7.86729,1.93656 7.62521,3.14692 -0.12102,5.08348 -5.08349,0.60518 4.96245,5.20451 -10.53008,0.48415 4.8414,2.4207 -1.93656,2.17863 -6.89901,0.96829 -6.65694,0.12103 5.0835,4.11521 -0.60519,2.90483 -8.83557,-2.66277 -2.90486,1.69449 6.05177,1.57346 5.56763,3.87314 0.72622,5.20453 -8.95664,1.21034 -3.26794,-2.54174 -5.08348,-3.63106 0.60517,4.35727 -6.53589,3.38898 12.95077,0.24208 6.65694,0.36311 -14.40321,5.68866 -14.7663,5.20451 -15.37148,2.17865 -5.56764,0.12103 -5.93072,2.54174 -9.07764,7.02005 -12.3456,4.72038 -3.63108,0.3631 -7.38315,1.57347 -7.98833,1.69448 -5.8097,4.1152 -1.6945,4.84141 -4.11519,4.59935 -10.40904,5.56762 0.36311,5.4466 -4.35728,5.8097 -4.96243,6.899 -7.86731,0.48416 -6.05177,-5.80972 -10.89317,-0.12103 -3.87312,-3.87314 -0.96829,-6.77796 -5.80969,-8.71455 -0.84725,-4.47831 1.81553,-6.1728 -4.47831,-6.17281 3.99417,-4.96243 -2.29967,-2.42072 8.47247,-7.74625 8.71454,-2.54174 3.14691,-2.66278 3.389,-5.08348 -6.65694,2.29967 -3.14693,0.96828 -4.96244,0.84724 -5.08349,-2.05759 1.81552,-4.4783 3.63107,-3.389 4.59934,-0.12103 9.19869,1.81553 -6.41487,-4.1152 -3.26796,-2.17865 -5.32555,0.84725 -3.14691,-1.57345 8.47246,-5.80969 -1.57345,-2.42071 -1.33139,-4.23624 -1.69449,-6.53591 -4.35728,-2.29967 1.6945,-2.54174 -9.80386,-3.51002 -9.31972,-0.48415 -12.22457,0.24207 -11.49836,0.48415 -3.75209,-1.93656 -4.59935,-3.752099 13.31389,-1.815541 9.19869,-0.242062 -17.67116,-1.573467 -7.8673,-2.299668 2.66278,-2.17863 19.00254,-2.662776 18.15531,-2.662787 3.38897,-1.93656 -9.80384,-1.936563 5.56762,-2.057601 17.79219,-3.510029 6.53591,-0.484135 0.24206,-2.178641 10.89318,-1.331391 13.31389,-0.726212 h 12.58767 l 3.38898,1.452423 12.82974,-2.662777 8.59353,1.815531 5.56761,0.363104 7.50419,1.573457 -8.10936,-2.541738 1.93656,-2.0576 15.37149,-2.662777 14.04009,0.242071 6.1728,-1.694496 14.40322,-0.363106 z"
     id="GL"
     name="Greenland"
     style="stroke-width:0.24207" />
  <path
     d="m 430.52854,533.64467 -0.84725,6.1728 -1.57346,8.71455 h 2.05761 l 2.05759,1.45241 0.72621,-1.21033 1.81554,0.96827 -3.389,3.02589 -3.51001,2.17862 -0.60519,1.45242 0.3631,1.57347 -1.57344,1.93658 -1.69451,0.48412 0.36311,0.96829 -1.45243,0.84725 -2.4207,1.93656 -0.36311,1.08932 -3.38898,-1.33138 -4.23623,-0.12104 -2.90486,-1.57346 -3.38899,-3.14693 0.48414,-2.29967 0.96828,-1.81553 -0.84724,-1.45241 3.99416,-6.29384 h 8.71455 l 0.48414,-2.66278 -0.96828,-0.48412 -0.60517,-1.6945 -2.29967,-1.81555 -2.17865,-2.54172 3.02589,-0.12106 0.60516,-4.35726 h 6.29385 z"
     id="GT"
     name="Guatemala"
     style="stroke-width:0.24207" />
  <path
     d="m 468.65466,555.43103 -2.29967,-0.12104 -1.08932,1.08931 -2.42068,0.9683 h -1.69451 l -1.57347,0.96828 -1.33139,-0.24208 -1.08932,-1.21034 -0.7262,0.24206 -1.08931,1.81553 -0.60518,-0.12103 -0.24208,1.69449 -2.54174,2.0576 -1.45243,0.96827 -0.7262,0.96829 -1.81553,-1.57344 -1.69449,2.05759 h -1.45244 l -1.57345,0.12103 -0.24208,3.87314 h -0.96828 l -0.96828,1.81554 -2.17862,0.36309 -0.9683,-2.4207 -2.0576,-0.72621 0.84725,-3.14693 -0.84725,-0.84723 -1.45242,-0.48417 -3.02589,0.84728 -0.12103,-0.9683 -1.93656,-1.33139 -1.33139,-1.45241 -1.93656,-0.72621 1.57344,-1.93658 -0.3631,-1.57347 0.60519,-1.45242 3.51001,-2.17862 3.389,-3.02589 0.72621,0.36312 1.57346,-1.33139 1.93656,-0.12104 0.60517,0.60516 1.08932,-0.3631 3.14692,0.72621 3.14692,-0.24207 2.17863,-0.84724 0.96829,-0.84726 2.0576,0.36311 1.57344,0.48415 1.81554,-0.12103 1.45244,-0.72623 3.02588,1.08934 0.96828,0.24206 1.93656,1.45244 1.81552,1.69448 2.29967,1.21035 z"
     id="HN"
     name="Honduras"
     style="stroke-width:0.24207" />
  <path
     d="m 549.9904,518.87837 0.12102,4.1152 -0.84724,3.02588 -1.81553,1.33138 1.57347,2.29967 -0.36311,2.17864 -4.35726,-1.33139 -3.26797,0.48415 -4.1152,-0.48415 -3.26796,1.45243 -3.38899,-2.42071 0.84726,-2.54174 6.17279,1.08932 4.96246,0.60518 2.66277,-1.6945 -2.78381,-3.389 0.48415,-3.02587 -4.23625,-1.21035 1.81554,-2.05761 4.11521,0.24207 z"
     id="HT"
     name="Haiti"
     style="stroke-width:0.24207" />
  <path
     d="m 513.3167,533.16054 -2.17864,1.33138 -3.63107,-1.33138 -3.51001,-2.78382 0.96828,-1.81551 2.90483,-0.48416 1.57348,0.24206 4.47829,0.72623 3.26796,1.81553 0.96829,2.17863 z"
     id="JM"
     name="Jamaica"
     style="stroke-width:0.24207" />
  <path
     d="m 383.56682,471.19044 2.66277,-0.24206 -3.8731,6.89901 -2.17865,5.56763 -2.17863,10.40902 -1.33139,3.7521 0.48413,4.23625 1.57347,3.87312 0.48415,5.93075 3.63104,5.80967 0.96829,4.47831 2.05759,3.7521 6.89904,2.05759 2.29967,3.26797 6.29382,-2.17864 5.20452,-0.72621 5.32556,-1.45242 4.35726,-1.33139 4.72039,-3.1469 2.17863,-4.47832 1.45243,-6.53591 1.45243,-2.29968 4.8414,-2.05759 7.38315,-1.81553 5.93073,0.3631 4.11521,-0.72622 1.45243,1.69448 -0.72622,3.75211 -4.23624,4.59935 -2.17863,4.72038 1.08932,1.33139 -1.45243,3.38898 -2.54174,6.05177 -1.45243,-2.0576 -1.33138,0.12103 -1.33139,0.12103 -3.02589,4.72039 -1.08932,-0.96829 -0.84724,0.36311 -0.12103,1.21035 -6.29384,-0.12103 h -6.29385 l -0.60516,4.35726 -3.02589,0.12106 2.17865,2.54172 2.29967,1.81555 0.60517,1.6945 0.96828,0.48412 -0.48414,2.66278 h -8.71455 l -3.99416,6.29384 0.84724,1.45241 -0.96828,1.81553 -0.48414,2.29967 -6.77797,-8.35143 -3.14693,-2.54173 -5.32555,-2.0576 -3.87313,0.60517 -5.80969,2.90484 -3.51003,0.72621 -4.47829,-2.0576 -4.96246,-1.45242 -5.80971,-3.51003 -4.96244,-1.0893 -7.14108,-3.63107 -5.20451,-3.7521 -1.33139,-2.0576 -3.75209,-0.48415 -6.53591,-2.42068 -2.29968,-3.51004 -6.5359,-4.47831 -2.66279,-4.8414 -0.96827,-3.87314 2.29967,-0.7262 -0.36311,-2.17865 1.93657,-2.05759 0.48414,-2.66277 -1.81554,-3.51004 v -3.02588 l -1.57346,-3.99416 -4.59934,-7.74625 -5.56761,-6.05177 -2.29967,-4.84142 -4.96246,-3.14693 -0.84724,-1.93655 2.0576,-4.72038 -2.90485,-1.81554 -3.02589,-3.87311 -0.24206,-5.32557 -3.38898,-0.7262 -2.78383,-3.99418 -2.0576,-3.87313 0.36311,-2.4207 -1.81553,-5.80971 -0.3631,-5.93071 0.96828,-3.02589 -3.7521,-3.14692 -2.29967,0.36311 -2.90484,-2.0576 -2.17864,3.14691 -0.12104,3.63107 -1.21035,5.93072 1.21035,3.14692 3.38898,5.32556 0.48416,1.93657 0.84723,0.48413 0.12105,2.66277 1.21035,-0.12102 v 5.08348 l 1.57346,1.93657 0.60519,2.78382 3.26792,3.87311 0.48416,7.26214 1.21035,3.38898 1.08932,3.63105 -0.36311,4.11521 3.14692,0.24207 1.93657,3.51002 1.81552,3.51002 -0.3631,1.45243 -3.38899,2.78381 h -1.21035 l -0.84724,-4.72037 -3.51005,-4.47832 -4.11519,-3.75209 -3.02588,-1.93656 1.45242,-5.68866 -0.12103,-4.23624 -2.54174,-2.42071 -3.75209,-3.38899 -1.08933,0.96829 -1.21034,-2.05758 -3.63106,-1.81555 -2.66278,-4.59933 0.60518,-0.48416 2.54173,0.36312 3.26797,-2.90485 1.21035,-3.51002 -3.51004,-5.56764 -3.1469,-2.05759 -0.96829,-4.84142 -0.72622,-5.20452 -0.96827,-6.17278 -0.24208,-7.02008 7.62522,-0.60517 8.5935,-0.84723 -1.0893,1.57346 8.47247,3.75209 13.19287,5.4466 h 13.0718 5.20451 l 0.96829,-3.26798 h 11.37732 l 1.57344,2.78383 2.54176,2.54175 2.90485,3.38898 0.96827,3.99416 0.48413,4.35728 2.78383,2.29966 4.84141,2.29967 5.80969,-6.05177 5.44659,-0.24208 3.87314,3.14694 1.93657,5.32556 1.08931,4.59933 2.90486,4.35726 0.24205,5.44659 1.08933,3.63106 4.72038,2.4207 z"
     id="MX"
     name="Mexico"
     style="stroke-width:0.24207" />
  <path
     d="m 468.65466,555.43103 -0.60518,0.84725 -0.60516,1.69449 0.48414,2.78381 -1.81555,2.66278 -0.96826,3.14692 -0.60519,3.38897 0.24206,2.05762 -0.12103,3.51002 -1.08932,0.72621 -0.84725,3.38899 0.24208,2.0576 -1.45242,1.93658 0.12103,2.05759 0.96828,1.33139 -1.69449,1.6945 -2.0576,-0.60519 -0.96829,-1.57346 -2.17862,-0.60516 -1.57347,0.96827 -4.35726,-2.05759 -1.08932,0.96827 -2.17865,-2.42071 -3.02587,-3.1469 -1.33139,-2.54175 -2.66278,-2.54174 -3.02589,-3.51003 0.84725,-1.21034 0.96828,1.21034 0.6052,-0.48414 2.17862,-0.36309 0.96828,-1.81554 h 0.96828 l 0.24208,-3.87314 1.57345,-0.12103 h 1.45244 l 1.69449,-2.05759 1.81553,1.57344 0.7262,-0.96829 1.45243,-0.96827 2.54174,-2.0576 0.24208,-1.69449 0.60518,0.12103 1.08931,-1.81553 0.7262,-0.24206 1.08932,1.21034 1.33139,0.24208 1.57347,-0.96828 h 1.69451 l 2.42068,-0.9683 1.08932,-1.08931 z"
     id="NI"
     name="Nicaragua"
     style="stroke-width:0.24207" />
  <path
     d="m 504.60216,604.69239 -0.84726,1.08933 1.3314,4.59934 -1.3314,2.29968 -2.17864,-0.60518 -1.0893,3.75208 -2.17864,-2.17863 -1.21037,-4.23624 1.6945,-2.05761 -1.6945,-0.48412 -1.08932,-2.54176 -3.38898,-2.17862 -2.90484,0.48413 -1.57346,2.66277 -2.90485,1.93658 -1.45242,0.24209 -0.72621,1.69448 3.02588,4.23623 -1.93657,0.9683 -0.96829,1.08929 -3.26795,0.48415 -0.96828,-4.72037 -0.96827,1.33139 -2.17866,-0.48414 -1.21033,-3.0259 -2.78382,-0.60516 -1.81554,-0.84725 h -2.90485 l -0.24206,1.6945 -0.72622,-1.21036 0.36312,-1.57346 0.72622,-1.57346 -0.24209,-1.33139 1.08932,-0.96829 -1.33139,-1.0893 0.12104,-3.14693 2.66279,-0.7262 2.29966,2.78381 -0.24205,1.69449 2.66277,0.36311 0.7262,-0.72621 1.81552,1.93657 3.38899,-0.60518 3.02588,-1.93657 4.23625,-1.57346 2.42071,-2.29966 3.7521,0.48413 -0.2421,0.72621 3.7521,0.24209 2.90487,1.45241 2.17862,2.29967 z"
     id="PA"
     name="Panama"
     style="stroke-width:0.24207" />
  <path
     d="m 435.85409,568.01871 -0.84724,1.81552 -3.99417,-0.12103 -2.42071,-0.72621 -2.66277,-1.57346 -3.63106,-0.48415 -1.81554,-1.69449 0.36311,-1.08932 2.4207,-1.93656 1.45243,-0.84725 -0.36311,-0.96829 1.69451,-0.48412 1.93656,0.72621 1.33139,1.45241 1.93656,1.33139 0.12103,0.9683 3.02589,-0.84728 1.45242,0.48417 0.84725,0.84723 z"
     id="SV"
     name="El Salvador"
     style="stroke-width:0.24207" />
  <path
     className="US"
     d="m 492.74068,300.0465 -7.38314,2.42072 -5.68866,3.0259 -5.56763,3.26793 -0.60518,1.08934 6.89902,-1.57347 2.54174,2.54173 5.56763,-1.81553 5.93073,-2.54172 6.5359,-2.54175 -3.75209,3.99415 3.02589,0.9683 3.02587,2.90484 6.17281,-1.69449 6.17279,-0.60518 0.3631,2.17862 1.81554,0.2421 1.45242,0.24206 1.81554,3.02588 -5.68867,0.72621 h -0.12104 l -4.4783,-0.84725 -5.44659,1.45243 -4.4783,0.72621 -5.68867,4.96244 -3.63104,2.78381 0.48412,0.84725 6.65695,-4.96244 h 0.84725 l -5.68865,5.93073 -3.51004,5.32557 -3.02589,4.35726 -0.72621,3.75209 -0.96828,1.81552 -0.7262,2.05759 0.12103,3.99418 0.36311,0.60518 2.17864,-0.12104 1.93657,-0.84723 1.69448,-0.9683 3.99416,-3.75209 2.17864,-5.08348 -0.12103,-4.72038 1.69449,-3.26796 3.14691,-3.75209 2.54176,-2.66278 3.26793,-1.81552 -0.48412,2.54174 2.66278,-3.7521 1.57345,-0.72622 2.0576,-2.90484 4.59934,1.57345 3.38898,2.90487 -0.96828,3.51 -1.93655,3.51004 -4.59934,3.02587 -0.48415,1.93657 h 1.21034 l 5.20453,-3.26794 1.93655,0.7262 -0.60516,4.47831 -0.84724,3.14692 -4.4783,4.23624 -2.42072,2.66278 -3.26795,2.90484 3.26795,1.57345 3.02588,0.48415 4.84141,-1.08932 4.47831,-2.0576 3.63106,-1.08932 5.56763,-2.17863 7.02005,-4.59933 0.12102,-0.72621 0.36311,-2.29968 3.26797,-0.96829 4.72038,0.3631 4.8414,0.60519 5.56761,-2.54176 0.72623,-3.02587 -0.24208,-1.08932 8.23039,-5.32555 3.26796,-1.33139 9.44076,-0.12104 h 11.25628 l 1.33139,-1.81552 2.05761,-0.3631 3.02587,-1.21037 3.38901,-3.51002 3.87312,-5.93073 6.65695,-5.68866 1.33138,1.93656 4.4783,-1.21035 1.93657,2.17864 -3.51002,10.28799 2.66278,4.35727 0.24207,2.54175 -7.74627,3.63107 -7.26212,2.66277 -7.2621,2.29967 -4.84144,4.59935 -1.57343,1.6945 -1.45243,4.11518 0.84723,3.99418 2.54176,0.24207 0.24205,-2.78382 1.33139,1.69449 -1.21033,2.17864 -4.59936,1.21035 -3.0259,-0.12104 -5.08346,1.3314 -2.7838,0.3631 -3.7521,0.36311 -6.05177,2.29968 9.80387,-1.45243 1.33138,1.45243 -9.56179,2.29967 h -3.99418 l 0.48414,-0.96828 -2.54173,2.17861 1.69449,0.36311 -3.02588,5.56764 -6.41487,5.93073 0.12104,-2.0576 -1.3314,-0.36312 -1.45243,-1.93655 v 4.23622 l 1.21036,1.33139 -0.72621,2.90486 -2.90484,3.02589 -5.44659,6.17279 -0.48414,-0.24208 3.51001,-5.32555 -2.4207,-2.90483 1.21036,-6.53592 -2.29967,3.38899 v 4.96244 l -3.87313,-1.21035 3.63105,2.42071 -1.81551,7.38316 1.69449,0.60518 v 2.66277 l -1.21036,7.74626 -5.56764,5.68864 -7.38316,2.29969 -5.32554,4.59934 -3.38899,0.48414 -4.11521,2.90485 -1.57345,2.54176 -8.35143,5.08347 -4.59935,3.75208 -4.23622,4.59934 -2.29967,5.44661 v 5.44659 l 0.7262,6.65693 1.81554,5.44659 -0.60518,3.38899 1.57344,8.95661 -1.21033,5.32556 -0.72622,3.02588 -2.42072,4.72039 -2.17862,0.96828 -3.14692,-0.96828 -0.48415,-3.38899 -2.17863,-1.81554 -2.4207,-6.65694 -1.93656,-5.93074 -0.48416,-3.02589 2.42072,-5.2045 -0.96828,-4.23624 -3.7521,-6.53591 -2.29967,-1.21035 -7.38315,3.63106 -1.08932,-0.48413 -2.42072,-3.63108 -3.63104,-1.93656 -7.74627,1.08931 -5.56763,-0.96827 -5.20451,0.60516 -3.02588,1.21036 0.7262,2.05761 -0.84724,3.1469 0.96828,1.57347 -1.45243,0.9683 -2.17863,-1.08933 -2.78381,1.45242 -4.72038,-0.24207 -3.99416,-4.11521 -5.93074,0.9683 -4.35728,-1.81555 -4.23622,0.6052 -6.05177,1.81553 -7.38316,5.68866 -7.38315,3.38899 -4.47831,3.63104 -2.29967,3.51005 -1.21035,5.44658 -0.48415,3.63106 0.7262,2.66277 -2.66277,0.24206 -4.35725,-1.6945 -4.72038,-2.4207 -1.08933,-3.63106 -0.24205,-5.44659 -2.90486,-4.35726 -1.08931,-4.59933 -1.93657,-5.32556 -3.87314,-3.14694 -5.44659,0.24208 -5.80969,6.05177 -4.84141,-2.29967 -2.78383,-2.29966 -0.48413,-4.35728 -0.96827,-3.99416 -2.90485,-3.38898 -2.54176,-2.54175 -1.57344,-2.78383 h -11.37732 l -0.96829,3.26798 h -5.20451 -13.0718 l -13.19287,-5.4466 -8.47247,-3.75209 1.0893,-1.57346 -8.5935,0.84723 -7.62522,0.60517 0.3631,-3.87312 -2.54173,-4.4783 -2.66278,-0.96829 0.12104,-2.17863 -3.51003,-0.48414 -1.45242,-2.0576 -5.8097,-0.72622 -1.08932,-1.33138 0.9683,-4.23626 -3.0259,-7.74624 -0.60518,-10.77214 1.08931,-1.81552 -1.57343,-2.54175 -1.81555,-6.53592 2.17865,-6.29382 -1.08933,-4.23625 4.72039,-6.41487 3.38899,-6.53589 1.33139,-5.93076 6.65693,-7.26211 4.84142,-6.89901 4.8414,-6.89901 5.20453,-10.288 2.17864,-6.41487 0.48412,-3.51002 1.6945,-1.57346 7.02005,2.66277 -1.21035,7.14108 2.66278,-2.0576 3.02588,-6.17279 1.93657,-6.1728 h 17.06598 17.79219 5.80968 18.27635 17.7922 17.91321 18.03427 20.33392 20.57601 12.34563 l 1.57343,-2.90487 h 2.05761 l -1.08933,4.11521 1.21035,1.21037 3.99418,0.48412 5.56763,1.21036 4.72036,2.29968 5.32555,-0.96829 z"
     id="path356"
     style="stroke-width:0.24207" />
  <path
     className="US"
     d="m 172.60227,232.38777 -8.47248,2.78382 -0.96826,-1.93658 2.7838,-3.38899 7.74627,-2.54172 4.23623,-1.08934 3.14692,0.48416 v 2.29967 z"
     id="path358"
     style="stroke-width:0.24207" />
  <path
     className="US"
     d="m 125.39849,212.29591 -4.72037,1.08932 -2.05759,-1.3314 -0.96829,-1.93655 6.89902,-1.21037 3.63107,0.72622 z"
     id="path360"
     style="stroke-width:0.24207" />
  <path
     className="US"
     d="m 126.85093,185.18401 1.45241,1.21034 4.23625,-0.60518 1.93655,1.81553 3.99416,0.84726 -1.4524,0.84724 -5.93074,1.45243 -2.0576,-1.57348 -0.36311,-1.21034 -5.20451,0.3631 -0.36311,-0.60517 z"
     id="path362"
     style="stroke-width:0.24207" />
  <path
     className="US"
     d="m 335.99996,145.24235 -29.77469,24.6912 -43.08857,39.57855 5.08348,0.24206 3.38897,1.93657 0.60519,3.14692 0.36312,4.59934 9.19866,-3.99417 7.86731,-2.29966 -0.72621,3.7521 0.96827,2.90483 1.93657,3.26795 -1.33139,5.08349 -1.69448,8.35145 5.56763,4.59933 -3.87315,4.59934 -6.17279,3.51004 -0.72621,-2.66278 -3.02589,-2.42072 3.99417,-6.29383 -1.93658,-5.93073 3.26797,-6.77798 -4.96246,-0.48412 -8.59351,-0.12106 -4.59933,-2.17862 -3.99417,-7.38317 -3.99416,-1.33138 -6.89901,-2.54175 -8.23041,0.60518 -7.26211,-3.26795 -3.26796,-3.02588 -7.62522,1.45241 -4.23623,4.96246 -3.51004,0.48414 -7.98832,1.45243 -7.5042,2.4207 -7.74627,1.57345 3.87315,-4.23622 10.16697,-7.02006 8.23039,-2.17863 0.48415,-1.69449 -11.37732,3.87312 -8.9566,4.72039 -13.55598,5.08348 0.24207,3.51001 -10.89317,5.08349 -9.31972,3.02588 -7.98835,2.29967 -4.8414,3.14694 -12.82974,3.75209 -5.44659,3.38898 -9.92491,3.14691 -3.26794,-0.48413 -7.50419,1.93655 -8.47247,2.54175 -7.383166,2.42071 -12.103524,2.17864 0.48414,-1.33139 9.924894,-3.38899 7.988326,-2.29967 10.40906,-3.99417 7.86728,-0.72621 6.05177,-3.02587 12.58766,-4.35728 2.78382,-1.45244 6.89901,-2.54173 7.02006,-5.44659 7.50417,-4.23624 -8.83555,2.17863 -0.36312,-1.33137 -5.93074,2.66277 0.48414,-3.63107 -4.35726,2.54174 1.93657,-3.51002 -8.8356,2.78381 h -3.38897 l 4.4783,-4.23622 3.99418,-2.66278 -0.48415,-2.54175 -8.71455,1.45243 -0.72621,-3.389 -1.57347,-1.69448 4.84143,-3.99416 -0.48416,-3.02589 7.14111,-3.99418 9.3197,-3.99415 6.41489,-3.51003 4.96245,-0.48415 2.17862,1.08933 8.59351,-3.389 3.02588,0.60519 6.77798,-2.17863 3.02588,-3.14692 -1.33138,-1.21037 7.26211,-2.66278 -3.38898,0.12105 -7.50419,1.45242 -3.51002,1.57346 -2.17865,-1.57346 -8.35142,0.84726 -5.56763,-1.69451 1.45241,-2.78382 -1.21034,-3.87311 11.13526,-2.90487 15.97665,-3.26795 h 4.23623 l -5.20452,3.38899 11.13526,-0.24207 1.45242,-4.23623 -2.78382,-2.54175 0.9683,-3.38897 -0.84725,-2.78382 -3.99418,-2.0576 7.8673,-3.51003 9.07765,-0.24207 10.6511,-2.90484 5.80971,-3.14691 9.56178,-3.14692 5.8097,-0.72623 13.55596,-2.90485 3.75209,0.48415 12.58767,-3.38898 5.32556,1.33138 -0.60519,2.90484 3.99418,-1.21034 7.62522,0.3631 -2.29967,1.45243 5.93073,1.08931 5.93073,-0.60517 7.50418,1.93655 8.71455,0.72621 2.66277,0.72623 7.98834,-0.96828 4.96245,1.93657 z"
     id="path364"
     style="stroke-width:0.24207" />
  <path
     d="m 557.37355,575.40187 -0.60517,-0.24208 -0.60519,-0.60519 0.12103,-0.72619 0.24207,0.3631 0.48415,0.48414 0.36311,0.60517 z"
     id="AW"
     name="Aruba"
     style="stroke-width:0.24207" />
  <path
     d="m 607.36115,530.49775 h -0.24209 l 0.36311,-0.48415 h 0.36311 l -0.24208,0.36312 z"
     id="AI"
     name="Anguilla"
     style="stroke-width:0.24207" />
  <path
     className="US"
     d="m 615.22844,538.97022 0.7262,0.36311 -0.24208,0.36312 h -0.24206 l -0.84725,0.12102 -0.24208,-0.12102 v -0.60519 l 0.36312,-0.12104 0.12104,-0.3631 h 0.24206 z"
     id="path373"
     style="stroke-width:0.24207" />
  <path
     className="US"
     d="m 615.22844,534.49192 h 0.24206 l 0.24206,0.24207 0.12104,0.48414 -0.12104,0.36311 -0.24206,0.12103 -0.12105,-0.24206 -0.3631,-0.24208 v -0.60517 z"
     id="path375"
     style="stroke-width:0.24207" />
  <path
     className="BS"
     d="m 542.24414,507.62207 -0.48414,0.60519 -0.24209,0.60517 -0.7262,0.36311 h -0.60517 l -0.12105,-0.12103 -0.48412,0.24205 -0.60519,0.12105 -0.72622,-0.24207 -0.48414,0.12102 -0.12102,-0.60516 0.3631,-0.24208 0.24206,-0.3631 0.48415,-0.24206 0.3631,-0.48415 h 0.48416 l 0.3631,-0.24207 0.24207,0.36311 0.60517,0.24206 0.60517,-0.24206 0.84726,-1.21038 h 0.36311 v 0.24209 z"
     id="path378"
     style="stroke-width:0.24207" />
  <path
     className="BS"
     d="m 542.48621,505.56449 -0.24207,-0.72622 0.72621,-0.36311 0.3631,0.36311 v 0.24207 l -0.3631,0.12104 z"
     id="path380"
     style="stroke-width:0.24207" />
  <path
     className="BS"
     d="m 542.97035,497.69719 0.24206,-0.12105 0.60517,0.36311 h 0.48417 l 0.48413,0.12105 0.3631,0.24207 v 0.3631 l -0.24207,0.12103 -0.60516,-0.48413 h -0.48417 l -0.12103,-0.12105 -0.60517,0.24208 -0.60517,-0.24208 v -0.12102 l 0.24206,-0.60519 z"
     id="path382"
     style="stroke-width:0.24207" />
  <path
     className="BS"
     d="m 538.24996,495.51855 -0.24206,0.48415 v 0.84723 l -0.12102,0.48415 -0.48416,0.36311 -0.24207,0.48413 -0.48414,0.36311 -0.84724,0.36311 -0.12104,0.24208 -0.24208,-0.24208 0.12104,-0.24207 0.48415,-0.12104 0.24205,-0.24206 v -0.24207 l 0.48415,-0.12105 0.24207,-0.48414 0.48416,-0.12103 0.36311,-0.48415 -0.24208,-0.36311 h -0.48415 l -0.24207,-0.24205 0.48414,-0.60519 0.12105,-0.12103 z"
     id="path384"
     style="stroke-width:0.24207" />
  <path
     className="BS"
     d="m 535.95029,495.15543 0.12105,0.12104 h 0.48412 l 0.48415,0.24208 -0.48415,0.48415 -0.12102,-0.24207 h -0.24207 l -0.48414,-0.12105 -0.48414,-0.24206 -0.36311,-0.72622 0.36311,-0.12103 0.48414,0.12103 z"
     id="path386"
     style="stroke-width:0.24207" />
  <path
     className="BS"
     d="m 524.81506,488.01435 0.7262,0.84725 0.3631,0.24207 0.36311,0.60517 -0.36311,-0.12101 -0.12105,-0.24207 -0.3631,-0.12105 -0.48413,-0.48415 -0.24206,-0.12102 -0.24208,-0.48414 z"
     id="path388"
     style="stroke-width:0.24207" />
  <path
     className="BS"
     d="m 529.29336,488.01435 0.3631,0.72621 0.24206,0.6052 v 0.48414 l 0.24207,0.24204 0.24208,0.84727 v 1.08932 l 0.24207,0.3631 0.60519,0.24207 0.48413,0.72621 v 0.96829 l -0.48413,-0.84727 v -0.24205 l -0.36311,-0.48413 -0.72623,-0.24208 0.24208,-0.24207 -0.3631,-0.36311 v -0.36311 l 0.24206,-0.36311 -0.12104,-0.60517 -0.36309,-0.48416 0.12102,-0.12101 -0.3631,-0.48414 -0.12102,-0.72623 -0.24208,0.12104 z"
     id="path390"
     style="stroke-width:0.24207" />
  <path
     className="BS"
     d="m 532.80337,488.01435 -0.3631,0.24208 -0.3631,-0.12103 -0.12104,-0.24207 0.72621,-0.24207 z"
     id="path392"
     style="stroke-width:0.24207" />
  <path
     className="BS"
     d="m 522.87849,485.71468 -0.12104,-0.12102 -0.36312,-0.84726 h 0.24208 z"
     id="path394"
     style="stroke-width:0.24207" />
  <path
     className="BS"
     d="m 535.58719,485.10951 -0.48414,0.72622 h -0.48414 l 0.24207,-0.36312 0.12103,-0.72621 0.48414,-0.36311 0.12104,0.48416 z"
     id="path396"
     style="stroke-width:0.24207" />
  <path
     className="BS"
     d="m 513.19566,483.65707 -0.36311,0.12106 -0.24208,0.3631 -0.36311,-0.12104 0.72621,-0.48413 z"
     id="path398"
     style="stroke-width:0.24207" />
  <path
     className="BS"
     d="m 513.43773,484.50434 0.48413,0.24206 0.24209,-0.24206 0.12101,-0.60518 0.24209,-0.12103 0.24206,0.72621 v 0.60517 l -0.12103,0.3631 0.12103,0.72622 v 0.3631 l -0.48415,0.9683 -0.24206,0.12103 -0.48413,-0.24209 0.24208,-0.36311 0.48411,-0.24205 -0.12101,-0.12105 -0.72622,0.48416 -0.24207,-0.24208 0.48414,-0.36311 h -0.48414 l -0.24209,0.12103 -0.24205,-0.24206 v -0.84724 l 0.12103,-0.24208 -0.48413,-0.60518 v -0.24206 l 0.48413,-0.24208 0.12102,-0.3631 0.36313,-0.12103 0.12103,-0.24207 0.72622,-0.36311 0.12101,0.48412 -0.60516,0.48416 z"
     id="path400"
     style="stroke-width:0.24207" />
  <path
     className="BS"
     d="m 529.7775,483.77813 0.12102,0.60516 -0.24206,-0.12103 -0.60518,0.12103 -0.48413,0.12105 -0.12106,-0.24208 0.36312,-0.24207 0.48415,-0.36312 v -0.24205 l -0.48415,-0.24207 -0.24206,-0.72622 -0.12106,-0.72621 -0.48412,-0.48413 v -0.24209 l -0.60518,-0.60516 0.36311,-0.36311 0.48413,0.48414 v 0.60518 l 0.24206,0.36311 0.12106,0.60517 0.36311,0.60518 0.48414,0.36311 0.12102,0.3631 z"
     id="path402"
     style="stroke-width:0.24207" />
  <path
     className="BS"
     d="m 517.31085,477.12119 0.36311,0.24206 -0.72621,0.36311 -0.36311,-0.12105 -0.24207,0.24208 -0.60517,-0.12103 0.24206,-0.36311 0.48416,-0.24206 z"
     id="path404"
     style="stroke-width:0.24207" />
  <path
     className="BS"
     d="m 512.22736,476.51602 0.48416,-0.24208 0.3631,0.36311 -0.12105,0.24205 0.12105,0.24209 -0.24207,0.48412 0.36311,0.36311 0.24207,1.08932 0.24207,0.36312 0.48415,0.60517 -0.24209,0.84726 0.12104,0.72619 -0.24205,0.3631 -0.36312,0.12105 -0.48416,0.48415 -0.3631,0.24206 h -0.36311 l -0.36309,0.24208 h -0.36309 v -0.48414 l -0.36312,-0.24209 0.12103,-0.72621 -0.36311,0.3631 -0.24207,-0.12102 -0.72622,-0.48416 -0.3631,-0.3631 -0.24206,-0.3631 0.84724,-0.36311 0.60518,0.84726 0.12103,-0.72621 -0.36311,-0.12105 -0.12102,-0.36311 0.12102,-0.36309 0.72622,-0.72621 0.24209,-0.48414 -0.12105,-0.12104 0.36311,-0.48414 v -0.60517 l -0.24206,-0.84725 0.12102,-0.12103 h 0.3631 z"
     id="path406"
     style="stroke-width:0.24207" />
  <path
     className="BS"
     d="m 522.03122,473.36909 0.12105,0.24206 0.36312,0.48415 0.96826,0.84723 0.60517,0.12106 0.12106,0.12102 0.24206,0.48415 0.36312,0.48415 0.60515,0.48414 v 0.24205 l -0.24205,0.96829 -0.12105,0.24208 v 0.36311 l -0.12103,0.60516 -0.24206,0.36312 -0.12104,0.84723 -0.12104,0.12105 -0.24206,-0.72622 -0.48416,-0.36311 0.12104,-0.24207 0.60518,0.12105 0.24208,-0.24208 -0.12104,-0.24207 0.12104,-0.48414 0.36309,-0.48414 0.12105,-0.60517 v -0.36312 l -0.60518,-0.48413 -0.48416,-0.84725 -0.3631,-0.24208 -0.7262,-0.36309 -0.36311,-0.36312 -0.7262,-0.24207 -0.48415,0.24207 0.48415,-1.08931 z"
     id="path408"
     style="stroke-width:0.24207" />
  <path
     className="BS"
     d="m 511.38013,464.29144 0.60517,0.24207 h 0.12104 l 0.84723,0.12104 0.24209,-0.24209 0.24207,0.12105 h 0.60517 l 0.48415,-0.24207 h 0.48414 l 0.3631,-0.24208 0.12104,0.60519 -0.12104,0.24206 h -0.3631 -0.48414 l -1.33139,0.24206 h -0.36311 l -1.81552,0.48417 -0.84726,0.48413 h -0.48413 l -0.24207,-0.12103 -0.36311,-0.3631 -0.60519,-0.72623 0.72622,0.36313 0.12104,0.24205 h 0.60516 l 0.60518,-0.24205 0.48416,-0.72623 -0.36312,-0.12105 0.24207,-0.3631 0.12105,-0.36311 z"
     id="path410"
     style="stroke-width:0.24207" />
  <path
     className="BS"
     d="m 516.58464,462.71797 0.9683,0.2421 0.24206,-0.12106 0.48414,0.36312 1.0893,1.21033 0.24209,0.72621 0.48414,0.12107 0.84725,0.60516 v 0.24207 l -0.24208,0.60518 0.24208,0.84725 h -0.48414 l -0.60517,0.48413 -0.12105,0.24208 -0.36312,1.21033 -0.12102,1.08934 -0.24208,0.24205 -0.3631,-0.24205 -0.12103,-0.48416 -0.48414,-0.12102 0.36311,-0.60517 h 0.24206 l 0.60518,-0.48415 -0.12103,-0.48414 0.24205,-0.48413 v -0.36311 l 0.24209,-0.36313 v -0.7262 l 0.24208,-0.12103 0.24206,-0.3631 0.12105,-0.3631 -0.36311,-0.12105 -0.60519,-0.12104 -0.12103,-0.3631 v -0.24208 l -0.48415,-0.24206 v -0.36311 l -0.3631,-0.84723 -0.24207,-0.12104 -0.36311,0.12104 -0.60518,-0.12104 h -0.3631 l -0.72622,-0.48416 z"
     id="path412"
     style="stroke-width:0.24207" />
  <path
     d="m 608.57148,533.0395 -0.12103,-0.36311 0.36312,0.12103 z"
     id="BL"
     name="Saint-Barthélemy"
     style="stroke-width:0.24207" />
  <path
     d="m 611.11324,420.47665 h -0.36312 l -0.12104,0.12103 0.12104,0.24207 -0.48415,0.24208 -0.12102,-0.12104 0.24207,-0.12104 h 0.12104 l 0.12102,-0.3631 0.3631,-0.12103 z"
     id="BM"
     name="Bermuda"
     style="stroke-width:0.24207" />
  <path
     d="m 628.30024,570.56044 -0.72621,-0.24206 -0.12103,-0.60518 v -0.96828 l 0.24207,-0.48415 0.24207,0.24207 0.24206,0.72621 0.60519,0.3631 0.12103,0.48416 z"
     id="BB"
     name="Barbados"
     style="stroke-width:0.24207" />
  <path
     d="m 564.75671,578.42774 h -0.36312 l -0.48412,-0.36311 -0.36311,-0.12103 -0.36311,-0.3631 -0.12105,-0.24208 -0.3631,-0.12102 -0.24206,-0.48415 -0.36312,-0.36313 0.12105,-0.60515 0.60517,0.36311 0.12102,0.60517 0.48414,0.48415 0.84726,0.24206 0.24208,0.3631 0.3631,0.48413 z"
     id="CW"
     name="Curaçao"
     style="stroke-width:0.24207" />
  <path
     className="KY"
     d="m 484.51028,521.90424 0.36312,0.12105 0.24208,-0.48415 0.48412,0.12103 h 0.60517 l 0.12104,0.24207 -0.24206,0.2421 -0.24208,-0.12105 -0.48413,0.12105 -0.24206,0.12102 h -0.84727 z"
     id="path442"
     style="stroke-width:0.24207" />
  <path
     className="KY"
     d="m 494.31414,518.87837 -0.84724,0.3631 0.24206,-0.3631 z"
     id="path444"
     style="stroke-width:0.24207" />
  <path
     className="KY"
     d="m 495.04035,518.99939 -0.12102,-0.12102 0.96829,-0.36311 -0.24208,0.36311 z"
     id="path446"
     style="stroke-width:0.24207" />
  <path
     d="m 616.80189,550.8317 0.60516,0.12103 0.24208,0.60517 v 0.7262 l -0.12102,0.9683 -0.12106,0.24207 -0.24205,0.12103 -0.48416,0.24208 0.12105,-0.48415 -0.12105,-0.24206 -0.12102,-0.84727 -0.36311,-0.60517 v -0.3631 l 0.12104,-0.3631 v -0.36311 h 0.24207 z"
     id="DM"
     name="Dominica"
     style="stroke-width:0.24207" />
  <path
     d="m 613.4129,578.42774 -0.48413,0.36311 -0.24209,-0.12106 -0.12102,-0.60516 0.24207,-0.60517 0.3631,-0.48415 h 0.3631 l 0.12103,0.36311 -0.12103,0.84725 z"
     id="GD"
     name="Grenada"
     style="stroke-width:0.24207" />
  <path
     className="KN"
     d="m 609.90287,539.09126 h -0.36309 l -0.12105,-0.24207 0.24209,-0.48413 h 0.24205 l 0.12105,0.24206 z"
     id="path497"
     style="stroke-width:0.24207" />
  <path
     className="KN"
     d="m 609.05563,537.27573 -0.12105,0.36313 h -0.24206 l -0.48414,-0.2421 -0.24208,-0.24207 0.36312,-0.48413 0.60516,0.48413 z"
     id="path499"
     style="stroke-width:0.24207" />
  <path
     d="m 618.85949,565.47695 -0.24206,-0.24206 -0.48416,-0.24207 -0.12104,-0.24207 v -0.7262 l 0.12104,-0.24208 0.84726,-1.3314 0.36311,0.24208 v 0.84723 l -0.12104,0.96829 -0.12105,0.48415 z"
     id="LC"
     name="Saint Lucia"
     style="stroke-width:0.24207" />
  <path
     d="m 607.36115,531.82914 -0.48417,-0.12103 0.24208,-0.3631 0.36311,-0.12103 z"
     id="MF"
     name="Saint-Martin"
     style="stroke-width:0.24207" />
  <path
     d="m 612.20255,541.39095 0.24207,0.48413 v 0.36311 l -0.24207,0.24205 -0.24207,-0.12101 -0.12103,-0.36312 z"
     id="MS"
     name="Montserrat"
     style="stroke-width:0.24207" />
  <path
     className="PR"
     d="m 574.56056,531.70811 -0.36311,-0.24208 0.12105,-0.24205 h 0.36311 l 0.12102,0.12103 z"
     id="path544"
     style="stroke-width:0.24207" />
  <path
     className="PR"
     d="m 592.23173,531.10293 h -0.24209 l -1.0893,0.3631 h -0.72622 l 0.24207,-0.24205 0.48415,-0.24208 0.48412,-0.12103 0.72622,0.12103 z"
     id="path546"
     style="stroke-width:0.24207" />
  <path
     className="PR"
     d="m 580.73337,528.19808 0.72621,0.12103 h 0.72621 l 0.3631,0.12104 0.72621,-0.12104 0.36311,0.12104 0.48414,-0.12104 0.24207,0.12104 0.60516,-0.12104 0.48417,0.12104 h 0.36311 l 0.96828,0.24208 v -0.24208 l 0.7262,0.24208 0.12103,-0.12102 0.96829,0.12102 0.24208,0.24208 h 0.24205 l 0.72623,0.36309 0.24206,-0.12104 -0.12102,0.84724 0.24206,0.36312 -1.08933,0.3631 -0.36311,0.48416 -0.3631,0.7262 -0.3631,0.24207 -0.36311,0.12102 h -0.48413 l -0.72623,0.12105 -0.3631,0.24207 -0.84724,-0.12104 -0.24209,-0.24208 -0.60516,0.24208 -0.3631,-0.3631 -0.84725,0.24207 -1.08931,-0.12105 -0.3631,0.12105 -0.72623,0.12103 -0.24206,0.12104 -0.24209,-0.24207 -0.48414,-0.12105 -0.3631,0.24208 -0.72621,-0.12103 0.36311,-0.84723 v -0.48416 l 0.24207,-0.48415 -0.24207,-0.72619 -0.24206,-0.12105 -0.12105,-0.48414 0.48416,-0.24206 0.24205,-0.12103 v -0.6052 l 0.48416,-0.24206 z"
     id="path548"
     style="stroke-width:0.24207" />
  <path
     d="m 607.36115,531.82914 v 0.12104 l -0.48417,-0.12104 v -0.12103 z"
     id="SX"
     name="Sint Maarten"
     style="stroke-width:0.24207" />
  <path
     className="TC"
     d="m 551.07971,502.29653 h 0.84724 l 0.36312,0.48414 h -0.36312 l -0.3631,-0.12103 -0.60517,0.12103 -0.12103,-0.3631 z"
     id="path657"
     style="stroke-width:0.24207" />
  <path
     className="TC"
     d="m 547.81175,502.17549 0.36311,0.48415 0.72622,-0.12104 -0.24207,0.24207 h -0.72622 l -0.48414,-0.24207 z"
     id="path659"
     style="stroke-width:0.24207" />
  <path
     className="TC"
     d="m 550.47454,501.44929 v 0.60516 l -0.60519,-0.24206 -0.12103,-0.3631 0.12103,-0.12105 z"
     id="path661"
     style="stroke-width:0.24207" />
  <path
     d="M1998.9 556.6l0-0.2 0.1 0 0 0.1-0.1 0.1z"
     id="TV"
     name="Tuvalu" />
  <path
     d="m 617.04395,569.83423 -0.12102,0.12102 -0.60518,-0.3631 v -0.48413 l 0.24207,-0.3631 0.24207,-0.60518 h 0.48414 l 0.12102,0.48414 -0.12102,0.96827 z"
     id="VC"
     name="Saint Vincent and the Grenadines"
     style="stroke-width:0.24207" />
  <path
     d="m 597.55728,528.68223 -0.48416,0.24208 h -0.12102 l -0.36311,0.24205 -0.12104,-0.12102 0.12104,-0.36311 0.72622,-0.12102 z"
     id="VG"
     name="British Virgin Islands"
     style="stroke-width:0.24207" />
  <path
     className="US"
     d="m 595.62071,534.00778 0.3631,0.3631 -1.33138,0.24208 -0.12103,-0.60518 0.84723,-0.24208 z"
     id="path680"
     style="stroke-width:0.24207" />
  <path
     className="US"
     d="m 596.46795,529.40844 -0.24207,0.24206 h -0.60517 v -0.24206 l 0.3631,-0.12104 z"
     id="path682"
     style="stroke-width:0.24207" />
  <path
     className="US"
     d="m 594.77345,529.16636 0.48416,0.36311 -0.24207,0.24207 -0.36311,-0.24207 h -0.60519 l 0.24209,-0.24207 z"
     id="path684"
     style="stroke-width:0.24207" />
  <path
     d="m 568.38776,578.54878 h -0.24207 l -0.12104,-0.60518 0.12104,-0.3631 -0.12104,-0.3631 -0.48415,-0.12104 -0.3631,-0.36311 0.12105,-0.36313 1.45241,0.72624 -0.12102,0.24206 v 0.48414 l -0.24208,0.24207 z"
     id="BQBO"
     name="Netherlands"
     style="stroke-width:0.24207" />
  <path
     d="m 607.48217,536.18642 -0.24209,0.12104 v -0.24209 l 0.12107,-0.12101 z"
     id="BQSE"
     name="St. Eustatius (Netherlands)"
     style="stroke-width:0.24207" />
  <path
     d="m 605.66664,535.09709 h -0.12104 l 0.12104,-0.24207 0.12104,0.12105 z"
     id="BQSA"
     name="Saba (Netherlands)"
     style="stroke-width:0.24207" />
  <path
     d="m 619.2226,557.12552 v 0.24208 l 0.48412,-0.12103 -0.24205,0.60517 0.24205,0.24206 v 0.24208 l 0.24208,0.24207 0.24208,1.08932 -0.3631,0.3631 -0.12106,-0.48413 -0.12102,0.12103 -0.72621,-0.12103 h -0.48414 l -0.24208,-0.36312 0.72622,-0.60517 h -0.48414 l -0.48414,-0.48415 -0.12104,-0.60517 -0.24206,-0.60517 0.3631,-0.48416 0.48414,0.12106 0.60518,0.3631 z"
     id="MQ"
     name="Martinique"
     style="stroke-width:0.24207" />
  <path
     className="GP"
     d="m 618.01223,548.65306 h -0.3631 l -0.24208,-0.48414 0.12106,-0.24209 0.3631,-0.3631 0.36311,0.24209 0.12103,0.3631 v 0.24207 z"
     id="path746"
     style="stroke-width:0.24207" />
  <path
     className="GP"
     d="m 615.8336,545.50613 h 0.36311 v 0.24208 0.12102 l -0.24207,0.12105 v 0.96827 0.48415 l -0.24208,0.24206 -0.72621,0.36311 v -0.24205 l -0.24206,-0.24209 -0.12104,-0.60518 v -0.60516 l -0.12103,-0.60518 v -0.36311 l 0.24207,-0.36311 0.3631,-0.12103 0.60517,0.3631 z"
     id="path748"
     style="stroke-width:0.24207" />
  <path
     className="GP"
     d="m 617.52811,545.02199 0.48412,0.12104 0.6052,0.48413 -1.57348,0.36312 -0.36311,0.12104 -0.48413,-0.36311 0.12104,-0.72622 0.24207,-0.12103 -0.12103,-0.72621 0.12103,-0.24209 0.36311,-0.24205 0.3631,0.48414 v 0.48414 z"
     id="path750"
     style="stroke-width:0.24207" />
  <path
     className="FJ"
     d="M 1989.1 624.9 1988.8 625 1988.9 624.6 1989.1 624.9 Z"
     id="path752" />
  <path
     className="FJ"
     d="M 1981.6 623.3 1981.8 623.5 1982.1 623.6 1982.1 623.9 1981.6 624.1 1981.1 623.8 1980.6 624.1 1980.3 624.1 1980.1 624.4 1980.2 624.7 1979.8 624.6 1979.7 624.8 1979.3 624.7 1979.2 624.8 1978.8 624.6 1979.1 624.5 1979.3 624.4 1979.5 624.2 1979.9 624.3 1980.2 624 1980.4 623.7 1980.9 623.6 1981.4 623.3 1981.6 623.3 Z"
     id="path754" />
  <path
     className="FJ"
     d="M 1982.5 623.2 1982.3 623.3 1982.1 623.2 1982.3 623 1982.5 623.2 Z"
     id="path756" />
  <path
     className="FJ"
     d="M 1988.4 617.1 1988.5 617.6 1988.3 618.2 1988.2 618 1988.1 617.6 1987.9 617.6 1988 617.1 1988.2 617 1988.4 617.1 Z"
     id="path758" />
  <path
     className="FJ"
     d="M 1985.8 615.7 1985.7 615.7 1985.6 615.3 1985.8 615.1 1986.2 615 1986.2 615.4 1986 615.6 1985.8 615.7 Z"
     id="path760" />
  <path
     className="FJ"
     d="M 1983.6 613.2 1983.5 613.6 1983.8 613.8 1983.9 614.1 1984.2 614.5 1984.5 614.6 1984.6 614.9 1984.8 614.9 1984.9 615.3 1984.6 615.8 1984.7 616 1984.8 616.5 1984.5 616.7 1984.5 617.2 1984.7 617.2 1984.8 617.7 1984.5 618 1983.9 618.2 1983.8 618 1983.5 618.1 1983.4 618.3 1983.1 618 1982.3 618.3 1981.5 619 1981.2 618.9 1980.8 619.1 1980.5 619 1979.9 619.1 1979.6 618.9 1978.7 618.6 1978.4 618.5 1977.8 618.4 1977.6 618.3 1977.1 618.1 1976.9 617.1 1977.2 616.4 1977.5 616.4 1977.8 616.3 1977.9 615.8 1978.2 615.7 1978.3 615.3 1978.1 615.1 1978.7 614.7 1979.1 614.2 1979.2 614.3 1979.8 613.8 1980 613.8 1980.9 613.4 1981.5 613.6 1981.8 613.5 1982.3 613.3 1982.9 613.2 1983.2 612.9 1983.6 613.2 Z"
     id="path762" />
  <path
     className="FJ"
     d="M 1989.9 613.4 1989.7 613.5 1989.9 612.6 1990.3 612.6 1990.2 613 1989.9 613.4 Z"
     id="path764" />
  <path
     className="FJ"
     d="M 1978.5 611.4 1978.3 611.7 1977.8 612 1977.8 611.7 1978.2 611.3 1978.5 611.4 Z"
     id="path766" />
  <path
     className="FJ"
     d="M 1993.4 611 1993.2 610.8 1993.3 610.6 1993.8 610.1 1994.1 609.6 1993.8 610.7 1993.4 611 Z"
     id="path768" />
  <path
     className="FJ"
     d="M 1994.4 606 1994 606.4 1993.2 607.5 1992.9 607.6 1992.2 608 1992 608.6 1991.6 608.8 1991.4 609.1 1991.3 609.3 1991.6 609.4 1992.2 609.1 1992.3 609 1992.6 608.7 1992.8 608.4 1993.4 608.1 1993.7 607.8 1994.3 607.5 1994.3 607.8 1993.8 608.5 1993.6 608.6 1993.7 609.2 1993.4 609.5 1993.1 609.2 1992.7 609.2 1992.2 609.3 1991.8 609.6 1991.1 609.7 1990.1 609.7 1990.6 609.2 1990.2 609 1989.6 609.2 1989.2 609.4 1989.2 609.6 1988.9 609.7 1988.7 609.8 1988.6 610.2 1988.4 610.5 1988.1 610.4 1988.1 610.2 1987.7 610.1 1987.3 610.3 1987.1 610.8 1986.8 611 1986.5 611 1986.5 610.7 1986.5 610.3 1986.3 609.9 1986.4 609.7 1986.3 609.6 1985.7 609.8 1985.7 609.4 1986.1 609.1 1986.2 609.1 1986.1 608.6 1986.4 608.5 1986.9 608.8 1987.5 608.4 1987.7 608.4 1988 608.1 1988.2 608.1 1988.5 607.8 1988.5 607.6 1989.3 607.5 1990.2 607.2 1990.5 607.1 1990.9 607.2 1991.4 607 1991.6 606.6 1991.8 606.6 1992 606.2 1992.4 606.3 1992.5 606.1 1992.7 606.2 1993.7 605.7 1993.8 606 1994 605.9 1994.2 606 1994.5 605.7 1995 605.5 1995.1 605.6 1994.6 606 1994.4 606 Z"
     id="path770" />
  <circle
     cx="997.9"
     cy="189.1"
     id="0" />
  <circle
     cx="673.5"
     cy="724.1"
     id="1" />
  <circle
     cx="1798.2"
     cy="719.3"
     id="2" />
</svg>
